<svg id="Group_6953" data-name="Group 6953" xmlns="http://www.w3.org/2000/svg" xmlns:xlink="http://www.w3.org/1999/xlink" width="348.593" height="343.772" viewBox="0 0 348.593 343.772">
  <defs>
    <clipPath id="clip-path">
      <rect id="Rectangle_1781" data-name="Rectangle 1781" width="348.593" height="343.772" fill="none"/>
    </clipPath>
    <clipPath id="clip-path-5">
      <rect id="Rectangle_1777" data-name="Rectangle 1777" width="40.179" height="25.442" fill="none"/>
    </clipPath>
    <clipPath id="clip-path-6">
      <rect id="Rectangle_1778" data-name="Rectangle 1778" width="30.916" height="32.823" fill="none"/>
    </clipPath>
    <clipPath id="clip-path-7">
      <rect id="Rectangle_1779" data-name="Rectangle 1779" width="26.593" height="28.399" fill="none"/>
    </clipPath>
  </defs>
  <g id="Group_6952" data-name="Group 6952" clip-path="url(#clip-path)">
    <g id="Group_6938" data-name="Group 6938">
      <g id="Group_6937" data-name="Group 6937" clip-path="url(#clip-path)">
        <path id="Path_50939" data-name="Path 50939" d="M263.249,240.218l-88.152-.836-26.713-.128-7.264.016-1.889.026a4.1,4.1,0,0,0-.643.034,4.147,4.147,0,0,0,.643.042l1.889.044,7.263.09,26.714.143,88.156.055c34.4,0,65.562.042,88.118.206,11.278.08,20.4.186,26.712.306,3.153.059,5.6.123,7.264.186a13.489,13.489,0,0,1,2.532.189,13.606,13.606,0,0,1-2.533.163c-1.661.047-4.111.085-7.264.113-6.309.057-15.437.069-26.714.036-22.556-.064-53.712-.334-88.116-.686" transform="translate(-39.284 -67.818)" fill="#ebebeb"/>
        <path id="Path_50940" data-name="Path 50940" d="M262.946,243.384,176,229.041l-26.37-4.218-7.178-1.094-1.87-.263a4.042,4.042,0,0,0-.642-.063,3.9,3.9,0,0,0,.629.141l1.858.335,7.16,1.2,26.367,4.237,87.077,13.556c33.989,5.265,64.761,10.081,87.016,13.7,11.128,1.807,20.128,3.31,26.339,4.4,3.106.543,5.515.981,7.145,1.3a13.325,13.325,0,0,1,2.471.578,13.29,13.29,0,0,1-2.529-.224c-1.648-.208-4.075-.545-7.195-1-6.24-.91-15.26-2.3-26.395-4.056-22.272-3.52-53.006-8.564-86.937-14.188" transform="translate(-39.667 -63.324)" fill="#ebebeb"/>
        <path id="Path_50941" data-name="Path 50941" d="M262.171,246.336,178.6,218.665l-25.368-8.26-6.914-2.2-1.8-.549a3.848,3.848,0,0,0-.624-.161,4.067,4.067,0,0,0,.6.237l1.782.62,6.877,2.3,25.361,8.28,83.826,26.907c32.725,10.476,62.345,20.009,83.744,27.04,10.7,3.513,19.347,6.4,25.308,8.434,2.98,1.019,5.29,1.827,6.848,2.395a13.013,13.013,0,0,1,2.347.956,13.228,13.228,0,0,1-2.463-.613c-1.594-.46-3.937-1.169-6.945-2.1-6.018-1.867-14.7-4.635-25.419-8.1-21.432-6.934-50.976-16.69-83.585-27.515" transform="translate(-40.787 -58.817)" fill="#ebebeb"/>
        <path id="Path_50942" data-name="Path 50942" d="M260.935,249.127,182.817,208.84l-23.733-12.094-6.478-3.241-1.695-.824a4.033,4.033,0,0,0-.59-.257,3.851,3.851,0,0,0,.553.327l1.661.888,6.426,3.34,23.724,12.111,78.486,39.586c30.644,15.426,58.372,29.44,78.384,39.7,10.007,5.13,18.086,9.318,23.648,12.254,2.781,1.468,4.933,2.623,6.382,3.425a13.217,13.217,0,0,1,2.167,1.306,13.269,13.269,0,0,1-2.333-.99c-1.5-.7-3.7-1.767-6.522-3.157-5.645-2.779-13.78-6.861-23.808-11.95-20.058-10.174-47.679-24.391-78.155-40.139" transform="translate(-42.61 -54.544)" fill="#ebebeb"/>
        <path id="Path_50943" data-name="Path 50943" d="M259.242,251.737,188.471,199.9l-21.524-15.6-5.884-4.2-1.543-1.075a3.928,3.928,0,0,0-.542-.345,3.873,3.873,0,0,0,.5.408l1.5,1.133,5.818,4.289L188.3,200.127l71.247,51.2c27.823,19.961,52.989,38.076,71.128,51.3,9.071,6.609,16.387,11.991,21.415,15.75,2.514,1.879,4.455,3.351,5.76,4.367a13.059,13.059,0,0,1,1.933,1.624,13.27,13.27,0,0,1-2.147-1.336c-1.371-.926-3.374-2.316-5.942-4.123-5.135-3.615-12.523-8.9-21.622-15.472-18.2-13.141-43.227-31.441-70.832-51.693" transform="translate(-45.063 -50.648)" fill="#ebebeb"/>
        <path id="Path_50944" data-name="Path 50944" d="M257.134,254.084,195.4,192.025l-18.8-18.716-5.15-5.052-1.355-1.3a3.921,3.921,0,0,0-.48-.423,3.791,3.791,0,0,0,.424.478l1.3,1.349,5.07,5.129L195.2,192.22l62.3,61.5c24.335,23.986,46.338,45.741,62.17,61.583,7.919,7.92,14.3,14.359,18.671,18.842,2.187,2.241,3.873,3.994,5,5.2a13.1,13.1,0,0,1,1.654,1.9,13.172,13.172,0,0,1-1.91-1.65c-1.209-1.124-2.969-2.8-5.219-4.984-4.5-4.359-10.967-10.713-18.918-18.6-15.9-15.772-37.742-37.688-61.818-61.927" transform="translate(-48.078 -47.206)" fill="#ebebeb"/>
        <path id="Path_50945" data-name="Path 50945" d="M254.683,256.076l-51.2-70.773-15.621-21.372-4.291-5.78-1.134-1.49a3.879,3.879,0,0,0-.408-.492,3.751,3.751,0,0,0,.344.538l1.074,1.532,4.2,5.845,15.606,21.382L255.1,255.777c20.257,27.426,38.561,52.291,51.7,70.369,6.572,9.038,11.857,16.377,15.471,21.477,1.807,2.55,3.2,4.54,4.121,5.9a12.976,12.976,0,0,1,1.334,2.131,13.114,13.114,0,0,1-1.627-1.923c-1.017-1.3-2.49-3.227-4.37-5.724-3.76-5-9.144-12.264-15.754-21.276-13.224-18.02-31.339-43.02-51.3-70.657" transform="translate(-51.599 -44.267)" fill="#ebebeb"/>
        <path id="Path_50946" data-name="Path 50946" d="M251.982,257.648l-39.343-77.8L200.6,156.333l-3.322-6.37-.884-1.647a3.667,3.667,0,0,0-.326-.549,3.922,3.922,0,0,0,.254.585l.818,1.68,3.22,6.42,12.023,23.526,40.064,77.44c15.66,30.212,29.8,57.593,39.911,77.475,5.059,9.94,9.115,18,11.875,23.6,1.38,2.8,2.436,4.976,3.133,6.464a12.82,12.82,0,0,1,.979,2.311,12.946,12.946,0,0,1-1.3-2.15c-.8-1.437-1.948-3.57-3.409-6.327-2.922-5.514-7.087-13.523-12.188-23.443-10.2-19.837-24.132-47.323-39.463-77.7" transform="translate(-55.576 -41.886)" fill="#ebebeb"/>
        <path id="Path_50947" data-name="Path 50947" d="M249.107,258.764l-26.44-82.933c-3.432-10.58-6.21-19.145-8.139-25.093-.978-2.939-1.739-5.226-2.265-6.806l-.61-1.763a3.687,3.687,0,0,0-.235-.593,3.915,3.915,0,0,0,.158.617l.54,1.786,2.156,6.84,8.119,25.1,27.211,82.69c10.646,32.265,20.24,61.5,27.055,82.7,3.41,10.6,6.129,19.194,7.962,25.147.916,2.977,1.611,5.293,2.063,6.87a12.761,12.761,0,0,1,.6,2.434,12.859,12.859,0,0,1-.944-2.324c-.56-1.543-1.355-3.828-2.358-6.778-2.006-5.9-4.842-14.454-8.3-25.042-6.912-21.173-16.281-50.478-26.574-82.854" transform="translate(-59.928 -40.131)" fill="#ebebeb"/>
        <path id="Path_50948" data-name="Path 50948" d="M246.088,259.42c-5.029-33.583-9.581-63.974-12.881-86-1.7-10.98-3.078-19.87-4.033-26.043-.5-3.055-.883-5.431-1.15-7.072-.138-.791-.244-1.4-.321-1.836a3.755,3.755,0,0,0-.136-.621,3.805,3.805,0,0,0,.057.633c.059.439.141,1.051.249,1.847.241,1.645.59,4.028,1.038,7.089.952,6.174,2.322,15.064,4.015,26.046,3.5,22,8.336,52.346,13.677,85.883,5.365,33.516,10.174,63.873,13.522,85.87,1.675,11,2.989,19.906,3.851,26.069.43,3.082.747,5.477.942,7.1a12.755,12.755,0,0,1,.2,2.5,12.826,12.826,0,0,1-.561-2.442c-.306-1.611-.727-3.991-1.246-7.059-1.04-6.137-2.475-15.026-4.2-26.018-3.448-21.982-8.025-52.375-13.026-85.945" transform="translate(-64.504 -39.073)" fill="#ebebeb"/>
        <path id="Path_50949" data-name="Path 50949" d="M242.307,259.608c.31-33.946.59-64.665.794-86.932.047-11.108.086-20.1.112-26.344-.009-3.093-.016-5.5-.021-7.163-.011-.8-.02-1.42-.027-1.863a3.844,3.844,0,0,0-.036-.635,4.043,4.043,0,0,0-.042.634c-.01.443-.025,1.06-.044,1.863-.02,1.662-.049,4.069-.087,7.162-.031,6.245-.075,15.237-.128,26.345,0,22.267,0,52.988,0,86.935.025,33.93,0,64.656-.154,86.9-.075,11.121-.176,20.122-.294,26.342-.059,3.111-.121,5.525-.185,7.163a12.911,12.911,0,0,1-.19,2.5,13.056,13.056,0,0,1-.167-2.5c-.049-1.638-.089-4.053-.119-7.164-.061-6.221-.08-15.222-.053-26.344.051-22.244.306-52.969.641-86.9" transform="translate(-68.498 -38.74)" fill="#ebebeb"/>
        <path id="Path_50950" data-name="Path 50950" d="M223.937,259.312c5.658-33.485,10.777-63.788,14.488-85.754,1.8-10.966,3.25-19.843,4.26-26.008.478-3.057.849-5.436,1.106-7.079.114-.795.2-1.406.265-1.844a3.9,3.9,0,0,0,.064-.633,3.753,3.753,0,0,0-.143.62c-.08.436-.193,1.043-.338,1.833-.282,1.639-.691,4.012-1.217,7.062-1.015,6.164-2.475,15.04-4.28,26-3.507,22-8.346,52.346-13.692,85.881-5.317,33.522-10.181,63.872-13.836,85.821-1.826,10.975-3.345,19.851-4.443,25.978-.549,3.063-.992,5.439-1.313,7.046a12.8,12.8,0,0,1-.584,2.437,12.708,12.708,0,0,1,.226-2.494c.209-1.625.549-4.018,1.008-7.1.919-6.155,2.317-15.05,4.1-26.033,3.555-21.966,8.651-52.278,14.332-85.743" transform="translate(-57.897 -39.115)" fill="#ebebeb"/>
        <path id="Path_50951" data-name="Path 50951" d="M205.814,258.55c10.936-32.189,20.833-61.317,28.005-82.432L242.18,151.1c.959-2.946,1.7-5.237,2.221-6.82.239-.767.424-1.357.556-1.781a3.751,3.751,0,0,0,.163-.616,3.726,3.726,0,0,0-.24.59c-.15.418-.358,1-.628,1.757-.54,1.575-1.323,3.855-2.33,6.784l-8.379,25.016c-6.976,21.179-16.6,50.4-27.231,82.684-10.6,32.279-20.251,61.494-27.366,82.6-3.555,10.555-6.474,19.084-8.538,24.964-1.031,2.939-1.849,5.217-2.423,6.754a12.779,12.779,0,0,1-.967,2.316,12.618,12.618,0,0,1,.619-2.429c.466-1.573,1.183-3.883,2.128-6.851,1.89-5.936,4.69-14.5,8.2-25.072,7.018-21.14,16.893-50.282,27.848-82.446" transform="translate(-47.339 -40.217)" fill="#ebebeb"/>
        <path id="Path_50952" data-name="Path 50952" d="M188.633,257.332l40.8-77.063,12.249-23.412,3.282-6.389.834-1.672a3.752,3.752,0,0,0,.26-.583,3.949,3.949,0,0,0-.33.546l-.9,1.639-3.382,6.339-12.266,23.4c-10.269,19.831-24.437,47.191-40.092,77.425-15.623,30.23-29.815,57.583-40.209,77.325-5.2,9.871-9.438,17.842-12.412,23.328-1.487,2.744-2.656,4.866-3.469,6.3a13.017,13.017,0,0,1-1.322,2.137,12.948,12.948,0,0,1,1-2.3c.712-1.48,1.789-3.65,3.2-6.434,2.815-5.568,6.948-13.594,12.1-23.486,10.3-19.787,24.7-47.035,40.652-77.1" transform="translate(-37.324 -42.012)" fill="#ebebeb"/>
        <path id="Path_50953" data-name="Path 50953" d="M172.846,255.664l52.518-69.824,15.81-21.237,4.255-5.8,1.089-1.523a3.764,3.764,0,0,0,.349-.535,3.889,3.889,0,0,0-.413.489l-1.147,1.48-4.346,5.74-15.825,21.225-51.87,70.294c-20.224,27.45-38.577,52.28-51.973,70.175-6.7,8.95-12.149,16.168-15.957,21.129-1.9,2.48-3.4,4.4-4.425,5.683a13.1,13.1,0,0,1-1.645,1.907,12.933,12.933,0,0,1,1.354-2.119c.937-1.353,2.345-3.329,4.177-5.862,3.662-5.066,9.017-12.355,15.676-21.332,13.313-17.955,31.855-42.649,52.374-69.885" transform="translate(-28.136 -44.429)" fill="#ebebeb"/>
        <path id="Path_50954" data-name="Path 50954" d="M158.815,253.586l62.89-60.92,18.967-18.553,5.119-5.081,1.316-1.337a3.866,3.866,0,0,0,.429-.474,3.961,3.961,0,0,0-.485.419l-1.366,1.286-5.2,5L221.509,192.47,159.182,253.95c-24.307,24.014-46.353,45.725-62.409,61.349-8.026,7.814-14.552,14.108-19.1,18.424-2.271,2.159-4.048,3.823-5.267,4.936a13.184,13.184,0,0,1-1.926,1.632,13.12,13.12,0,0,1,1.672-1.885c1.139-1.192,2.843-2.929,5.051-5.151,4.417-4.442,10.856-10.821,18.849-18.667,15.984-15.7,38.194-37.244,62.758-61" transform="translate(-19.979 -47.4)" fill="#ebebeb"/>
        <path id="Path_50955" data-name="Path 50955" d="M146.847,251.171l71.734-50.531,21.662-15.419,5.858-4.234,1.51-1.119a3.858,3.858,0,0,0,.5-.4,3.982,3.982,0,0,0-.545.34l-1.553,1.061-5.924,4.145-21.673,15.4-71.264,51.173c-27.8,19.994-53,38.06-71.325,51.031-9.16,6.487-16.6,11.7-21.768,15.27-2.585,1.783-4.6,3.155-5.982,4.068a13.225,13.225,0,0,1-2.16,1.316,13.138,13.138,0,0,1,1.949-1.606c1.313-1,3.27-2.458,5.8-4.313,5.064-3.711,12.431-9.025,21.564-15.55,18.264-13.052,43.6-30.932,71.616-50.632" transform="translate(-13.015 -50.87)" fill="#ebebeb"/>
        <path id="Path_50956" data-name="Path 50956" d="M137.217,248.508l78.864-38.848,23.84-11.889,6.457-3.28,1.669-.873a3.98,3.98,0,0,0,.557-.321,3.856,3.856,0,0,0-.593.251l-1.7.808-6.508,3.18-23.848,11.872-78.5,39.557c-30.626,15.463-58.382,29.422-78.537,39.408-10.077,4.995-18.251,9-23.922,11.726-2.835,1.363-5.045,2.406-6.553,3.094a13.178,13.178,0,0,1-2.342.967,13.2,13.2,0,0,1,2.179-1.286c1.456-.788,3.619-1.923,6.414-3.366,5.589-2.885,13.708-7,23.764-12.034,20.109-10.075,47.971-23.827,78.763-38.966" transform="translate(-7.397 -54.791)" fill="#ebebeb"/>
        <path id="Path_50957" data-name="Path 50957" d="M130.183,245.674l84.08-26.127,25.439-8.042,6.9-2.238,1.788-.6a3.89,3.89,0,0,0,.6-.231,3.925,3.925,0,0,0-.625.155l-1.811.533-6.935,2.13-25.445,8.023-83.833,26.887c-32.711,10.52-62.348,20-83.846,26.734-10.747,3.369-19.459,6.056-25.495,7.868-3.018.906-5.366,1.593-6.966,2.039a13.36,13.36,0,0,1-2.468.591,13.058,13.058,0,0,1,2.357-.933c1.564-.553,3.881-1.339,6.871-2.329,5.98-1.982,14.654-4.784,25.388-8.2,21.466-6.83,51.175-16.088,84-26.259" transform="translate(-3.279 -59.081)" fill="#ebebeb"/>
        <path id="Path_50958" data-name="Path 50958" d="M125.955,242.7l87.2-12.756,26.405-3.995,7.171-1.139,1.862-.317a4.01,4.01,0,0,0,.631-.135,3.855,3.855,0,0,0-.643.057l-1.872.247-7.188,1.028-26.409,3.975L126.034,243.2c-33.982,5.312-64.763,10.074-87.066,13.388-11.152,1.66-20.184,2.961-26.433,3.814-3.125.427-5.554.741-7.2.934a13.312,13.312,0,0,1-2.532.2,13.319,13.319,0,0,1,2.477-.555c1.632-.3,4.046-.719,7.157-1.234,6.222-1.029,15.235-2.45,26.38-4.155,22.289-3.414,53.1-7.947,87.142-12.9" transform="translate(-0.793 -63.594)" fill="#ebebeb"/>
        <path id="Path_50959" data-name="Path 50959" d="M124.628,239.023l88.152.729,26.715.095,7.263-.026,1.889-.028a4.024,4.024,0,0,0,.643-.035,4.065,4.065,0,0,0-.643-.04l-1.889-.042-7.263-.082-26.715-.11-88.155.052c-34.406.045-65.563.039-88.119-.1-11.278-.066-20.4-.161-26.712-.273-3.154-.056-5.6-.116-7.264-.178A13.569,13.569,0,0,1,0,238.8a13.465,13.465,0,0,1,2.533-.166c1.661-.049,4.11-.09,7.264-.122,6.308-.064,15.436-.089,26.714-.069,22.556.037,53.712.269,88.117.578" transform="translate(0 -67.587)" fill="#ebebeb"/>
        <path id="Path_50960" data-name="Path 50960" d="M126.184,220.914l86.965,14.233,26.375,4.185,7.18,1.086,1.871.26a3.861,3.861,0,0,0,.641.062,4.017,4.017,0,0,0-.628-.14l-1.859-.332-7.161-1.2-26.372-4.2L126.1,221.421c-34-5.223-64.774-10-87.034-13.591-11.13-1.794-20.132-3.286-26.345-4.365-3.106-.539-5.516-.974-7.146-1.29A13.23,13.23,0,0,1,3.1,201.6a13.369,13.369,0,0,1,2.529.221c1.649.2,4.075.539,7.2.99,6.242.9,15.262,2.276,26.4,4.023,22.276,3.492,53.017,8.5,86.955,14.079" transform="translate(-0.88 -57.139)" fill="#ebebeb"/>
        <path id="Path_50961" data-name="Path 50961" d="M130.643,203.039,214.249,230.6l25.378,8.228,6.917,2.185,1.806.548a3.884,3.884,0,0,0,.624.161,3.743,3.743,0,0,0-.6-.236l-1.783-.618-6.881-2.294-25.371-8.247-83.861-26.8C97.741,193.094,68.109,183.6,46.7,176.594c-10.7-3.5-19.355-6.372-25.318-8.4-2.982-1.015-5.292-1.82-6.851-2.385a13.139,13.139,0,0,1-2.349-.953,13.121,13.121,0,0,1,2.463.609c1.6.459,3.938,1.164,6.948,2.094,6.02,1.859,14.709,4.616,25.429,8.072,21.44,6.907,51,16.627,83.62,27.411" transform="translate(-3.453 -46.726)" fill="#ebebeb"/>
        <path id="Path_50962" data-name="Path 50962" d="M137.895,186.09l78.169,40.19,23.748,12.064,6.482,3.233,1.7.821a3.926,3.926,0,0,0,.591.256,3.972,3.972,0,0,0-.554-.326l-1.662-.886-6.43-3.332-23.74-12.082-78.536-39.488c-30.664-15.388-58.41-29.366-78.436-39.6-10.013-5.117-18.1-9.295-23.663-12.225-2.783-1.465-4.936-2.617-6.386-3.417a13.207,13.207,0,0,1-2.169-1.3,13.322,13.322,0,0,1,2.334.987c1.5.7,3.7,1.763,6.526,3.148,5.648,2.772,13.788,6.844,23.823,11.92,20.071,10.149,47.71,24.332,78.207,40.041" transform="translate(-7.654 -36.846)" fill="#ebebeb"/>
        <path id="Path_50963" data-name="Path 50963" d="M147.725,170.515l70.837,51.747,21.544,15.578,5.889,4.193,1.545,1.073a3.878,3.878,0,0,0,.542.344,3.918,3.918,0,0,0-.5-.407l-1.5-1.131-5.823-4.282-21.534-15.592-71.312-51.109C119.569,151,94.38,132.919,76.224,119.72c-9.079-6.6-16.4-11.971-21.435-15.723-2.516-1.876-4.46-3.346-5.766-4.359a13.158,13.158,0,0,1-1.935-1.622,13.191,13.191,0,0,1,2.15,1.333c1.372.924,3.378,2.312,5.947,4.116,5.139,3.609,12.534,8.885,21.641,15.446,18.216,13.118,43.267,31.387,70.9,51.6" transform="translate(-13.347 -27.782)" fill="#ebebeb"/>
        <path id="Path_50964" data-name="Path 50964" d="M159.872,156.672l61.814,61.982,18.826,18.693,5.156,5.045,1.356,1.3a3.864,3.864,0,0,0,.482.423,3.886,3.886,0,0,0-.426-.477l-1.3-1.348-5.077-5.123-18.812-18.705L159.5,157.033c-24.366-23.955-46.4-45.683-62.249-61.507C89.326,87.616,82.94,81.185,78.56,76.707c-2.19-2.239-3.878-3.989-5.008-5.191a13.091,13.091,0,0,1-1.656-1.9,13.159,13.159,0,0,1,1.912,1.647c1.21,1.124,2.972,2.8,5.226,4.978,4.508,4.353,10.981,10.7,18.942,18.577,15.925,15.753,37.79,37.642,61.9,61.851" transform="translate(-20.379 -19.733)" fill="#ebebeb"/>
        <path id="Path_50965" data-name="Path 50965" d="M174.052,144.86l51.286,70.71,15.648,21.352,4.3,5.775,1.136,1.489a3.844,3.844,0,0,0,.408.492,3.879,3.879,0,0,0-.345-.537l-1.076-1.531-4.207-5.839-15.633-21.363L173.631,145.16c-20.292-27.4-38.627-52.243-51.792-70.306-6.584-9.03-11.878-16.362-15.5-21.458-1.81-2.548-3.2-4.536-4.128-5.9a12.974,12.974,0,0,1-1.336-2.129,13.038,13.038,0,0,1,1.629,1.92c1.018,1.295,2.494,3.223,4.377,5.719,3.766,4.991,9.16,12.254,15.781,21.256,13.247,18,31.394,42.98,51.388,70.593" transform="translate(-28.593 -12.86)" fill="#ebebeb"/>
        <path id="Path_50966" data-name="Path 50966" d="M189.96,135.353c15.4,30.36,29.341,57.834,39.444,77.748,5.09,9.909,9.21,17.931,12.07,23.5,1.44,2.749,2.558,4.889,3.331,6.366l.886,1.646a3.731,3.731,0,0,0,.326.548,3.948,3.948,0,0,0-.255-.584l-.82-1.678-3.229-6.417c-2.857-5.573-6.971-13.6-12.052-23.51L189.5,135.584c-15.7-30.192-29.871-57.556-40.011-77.425-5.071-9.934-9.137-17.993-11.9-23.584-1.384-2.8-2.443-4.974-3.143-6.46a12.753,12.753,0,0,1-.981-2.309,12.927,12.927,0,0,1,1.3,2.147c.8,1.436,1.954,3.568,3.418,6.323,2.928,5.51,7.1,13.515,12.218,23.428C160.627,77.529,174.591,105,189.96,135.353" transform="translate(-37.828 -7.315)" fill="#ebebeb"/>
        <path id="Path_50967" data-name="Path 50967" d="M207.229,128.406c10.366,32.372,19.747,61.666,26.548,82.9,3.444,10.575,6.234,19.137,8.171,25.082.982,2.939,1.746,5.224,2.273,6.8l.613,1.763a4.023,4.023,0,0,0,.234.593,3.661,3.661,0,0,0-.157-.617c-.13-.424-.309-1.016-.542-1.785-.5-1.586-1.23-3.884-2.165-6.837-1.932-5.947-4.715-14.51-8.152-25.088-7-21.172-16.65-50.38-27.318-82.656C196.046,96.31,186.415,67.09,179.572,45.894c-3.424-10.6-6.154-19.186-7.994-25.137-.921-2.975-1.619-5.291-2.072-6.867a12.728,12.728,0,0,1-.6-2.433,12.8,12.8,0,0,1,.947,2.324c.562,1.542,1.36,3.826,2.367,6.774,2.014,5.9,4.861,14.448,8.329,25.032,6.939,21.165,16.346,50.457,26.68,82.82" transform="translate(-47.875 -3.247)" fill="#ebebeb"/>
        <path id="Path_50968" data-name="Path 50968" d="M225.394,124.225c5.072,33.576,9.663,63.962,12.99,85.987,1.715,10.979,3.1,19.866,4.067,26.038.5,3.054.891,5.431,1.159,7.072l.323,1.835a3.755,3.755,0,0,0,.138.622,3.941,3.941,0,0,0-.059-.633c-.059-.439-.143-1.051-.251-1.847-.242-1.645-.595-4.027-1.047-7.088l-4.048-26.041c-3.531-21.994-8.4-52.336-13.787-85.865-5.408-33.508-10.256-63.86-13.631-85.854-1.69-11-3.016-19.9-3.884-26.064-.434-3.081-.755-5.477-.951-7.1a12.834,12.834,0,0,1-.206-2.5,12.736,12.736,0,0,1,.565,2.442c.308,1.61.732,3.989,1.255,7.057,1.048,6.136,2.494,15.023,4.23,26.013,3.476,21.978,8.092,52.365,13.136,85.929" transform="translate(-58.445 -0.789)" fill="#ebebeb"/>
        <path id="Path_50969" data-name="Path 50969" d="M243.539,122.9c-.267,33.946-.508,64.666-.683,86.933-.034,11.108-.061,20.1-.08,26.344.014,3.094.024,5.5.031,7.163.012.8.022,1.419.029,1.862a3.992,3.992,0,0,0,.037.635,3.9,3.9,0,0,0,.041-.634c.01-.443.024-1.061.042-1.863.018-1.662.044-4.069.078-7.163.022-6.244.054-15.237.095-26.344-.028-22.268-.067-52.988-.109-86.935-.068-33.93-.08-64.657.044-86.9.06-11.122.15-20.123.26-26.343.055-3.111.114-5.526.176-7.163a12.967,12.967,0,0,1,.187-2.5,13.018,13.018,0,0,1,.17,2.5c.051,1.638.094,4.053.128,7.164.069,6.221.1,15.222.086,26.344-.022,22.244-.238,52.969-.53,86.9" transform="translate(-68.817)" fill="#ebebeb"/>
        <path id="Path_50970" data-name="Path 50970" d="M246.76,124.427c-5.614,33.493-10.694,63.8-14.377,85.772-1.782,10.968-3.224,19.848-4.227,26.013-.473,3.058-.841,5.438-1.1,7.081-.113.795-.2,1.407-.263,1.845a3.765,3.765,0,0,0-.062.633,3.778,3.778,0,0,0,.141-.62c.08-.436.191-1.043.336-1.833l1.207-7.064c1.007-6.165,2.456-15.043,4.246-26.01,3.478-22,8.277-52.356,13.581-85.9,5.273-33.529,10.1-63.885,13.725-85.839,1.811-10.977,3.319-19.855,4.409-25.983.545-3.064.984-5.44,1.3-7.049a12.813,12.813,0,0,1,.581-2.438,12.8,12.8,0,0,1-.223,2.5c-.207,1.626-.544,4.018-1,7.1-.911,6.157-2.3,15.053-4.063,26.038-3.526,21.971-8.583,52.289-14.22,85.761" transform="translate(-64.269 -0.861)" fill="#ebebeb"/>
        <path id="Path_50971" data-name="Path 50971" d="M249.755,128.812l-27.9,82.468c-3.511,10.555-6.354,19.1-8.327,25.032-.955,2.946-1.7,5.239-2.212,6.823l-.554,1.781a3.782,3.782,0,0,0-.163.615,3.687,3.687,0,0,0,.239-.591l.626-1.758c.538-1.576,1.318-3.856,2.321-6.788l8.347-25.026,27.123-82.718c10.56-32.292,20.171-61.52,27.258-82.637,3.542-10.559,6.449-19.092,8.5-24.974,1.028-2.941,1.842-5.22,2.415-6.758a12.712,12.712,0,0,1,.964-2.317,12.648,12.648,0,0,1-.616,2.429c-.464,1.574-1.177,3.884-2.119,6.854-1.882,5.939-4.671,14.509-8.169,25.083-6.99,21.149-16.827,50.3-27.741,82.481" transform="translate(-59.696 -3.392)" fill="#ebebeb"/>
        <path id="Path_50972" data-name="Path 50972" d="M252.587,135.953l-40.7,77.114-12.218,23.428c-1.414,2.762-2.514,4.911-3.274,6.394l-.832,1.672a3.841,3.841,0,0,0-.259.582,3.785,3.785,0,0,0,.33-.546c.214-.389.511-.933.9-1.639l3.374-6.343L212.138,213.2l39.991-77.475c15.584-30.25,29.74-57.621,40.109-77.376C297.42,48.466,301.652,40.49,304.619,35c1.483-2.745,2.65-4.869,3.46-6.3a13.04,13.04,0,0,1,1.32-2.14,12.952,12.952,0,0,1-1,2.3c-.71,1.482-1.785,3.652-3.189,6.438-2.807,5.572-6.93,13.6-12.072,23.5-10.279,19.8-24.643,47.066-40.553,77.151" transform="translate(-55.359 -7.529)" fill="#ebebeb"/>
        <path id="Path_50973" data-name="Path 50973" d="M255.237,145.638l-52.427,69.89-15.783,21.256-4.248,5.81-1.087,1.524a3.894,3.894,0,0,0-.348.535,3.908,3.908,0,0,0,.411-.489l1.146-1.481,4.339-5.745,15.8-21.245,51.78-70.358c20.187-27.476,38.508-52.328,51.881-70.241,6.685-8.958,12.129-16.182,15.93-21.148,1.9-2.483,3.389-4.4,4.418-5.689a13,13,0,0,1,1.643-1.909,13.07,13.07,0,0,1-1.352,2.12c-.936,1.354-2.341,3.333-4.17,5.868-3.655,5.071-9,12.367-15.648,21.352-13.29,17.972-31.8,42.689-52.283,69.951" transform="translate(-51.403 -13.137)" fill="#ebebeb"/>
        <path id="Path_50974" data-name="Path 50974" d="M257.619,157.608l-62.811,61-18.943,18.577-5.113,5.087-1.314,1.339a3.911,3.911,0,0,0-.429.475,3.923,3.923,0,0,0,.484-.42l1.366-1.288,5.191-5.01L195.006,218.8l62.247-61.559c24.276-24.044,46.294-45.783,62.329-61.427,8.017-7.823,14.534-14.125,19.072-18.447,2.269-2.161,4.043-3.828,5.261-4.942a13.086,13.086,0,0,1,1.923-1.634,13.03,13.03,0,0,1-1.67,1.887c-1.138,1.194-2.838,2.932-5.044,5.156-4.411,4.448-10.842,10.836-18.826,18.691-15.963,15.715-38.145,37.292-62.679,61.081" transform="translate(-47.907 -20.066)" fill="#ebebeb"/>
        <path id="Path_50975" data-name="Path 50975" d="M259.646,171.584l-71.669,50.622-21.642,15.445-5.853,4.242-1.51,1.121a3.906,3.906,0,0,0-.5.4,3.957,3.957,0,0,0,.545-.34l1.552-1.062,5.919-4.152,21.652-15.431,71.2-51.262c27.772-20.029,52.951-38.127,71.259-51.12,9.152-6.5,16.584-11.725,21.749-15.3,2.582-1.786,4.6-3.16,5.977-4.074a13.182,13.182,0,0,1,2.158-1.32,13.166,13.166,0,0,1-1.947,1.609c-1.313,1-3.267,2.461-5.8,4.32-5.059,3.717-12.419,9.041-21.544,15.576-18.247,13.075-43.563,30.987-71.55,50.723" transform="translate(-44.921 -28.162)" fill="#ebebeb"/>
        <path id="Path_50976" data-name="Path 50976" d="M261.245,187.266l-78.813,38.948-23.824,11.919-6.453,3.287-1.668.875a4.088,4.088,0,0,0-.556.322,3.826,3.826,0,0,0,.593-.252l1.7-.81,6.5-3.188,23.833-11.9,78.448-39.657c30.606-15.5,58.344-29.5,78.486-39.507,10.07-5.007,18.239-9.023,23.907-11.756,2.834-1.366,5.042-2.413,6.549-3.1a13.156,13.156,0,0,1,2.341-.969,13.227,13.227,0,0,1-2.177,1.289c-1.456.79-3.617,1.928-6.409,3.374-5.585,2.892-13.7,7.015-23.749,12.063-20.1,10.1-47.94,23.889-78.712,39.066" transform="translate(-42.499 -37.265)" fill="#ebebeb"/>
        <path id="Path_50977" data-name="Path 50977" d="M262.382,204.292l-84.046,26.233L152.908,238.6l-6.9,2.246-1.787.605a3.845,3.845,0,0,0-.6.232,4.085,4.085,0,0,0,.625-.157l1.809-.535,6.932-2.139,25.435-8.055,83.8-26.994c32.7-10.561,62.322-20.078,83.81-26.84,10.744-3.383,19.451-6.081,25.485-7.9,3.017-.91,5.364-1.6,6.963-2.048a13.183,13.183,0,0,1,2.467-.593,13.276,13.276,0,0,1-2.355.935c-1.564.555-3.879,1.344-6.868,2.338-5.977,1.99-14.648,4.8-25.377,8.229-21.458,6.858-51.155,16.153-83.965,26.366" transform="translate(-40.711 -47.171)" fill="#ebebeb"/>
        <path id="Path_50978" data-name="Path 50978" d="M263.052,222.2l-87.185,12.866-26.4,4.028-7.17,1.147-1.861.32a4.018,4.018,0,0,0-.63.135,3.906,3.906,0,0,0,.642-.057l1.872-.249,7.187-1.037,26.4-4.009L262.973,221.7c33.976-5.355,64.75-10.156,87.049-13.5,11.149-1.673,20.18-2.987,26.428-3.847,3.123-.431,5.552-.748,7.2-.942a13.248,13.248,0,0,1,2.531-.2,13.2,13.2,0,0,1-2.476.557c-1.632.305-4.045.724-7.155,1.243-6.22,1.037-15.232,2.469-26.374,4.188-22.284,3.442-53.094,8.015-87.126,13.01" transform="translate(-39.629 -57.593)" fill="#ebebeb"/>
        <path id="Path_50979" data-name="Path 50979" d="M356.342,357.318a29.174,29.174,0,0,0-13.559-8.74,29.771,29.771,0,0,0-14.815-.59,20,20,0,0,0-9.106,4.9,26.556,26.556,0,0,0-6.838,11.641,2.83,2.83,0,0,0,1.94,3.563l9.569,2.694a2.845,2.845,0,0,0,3.359-1.584c1.269-2.881,4.472-7.433,11.668-5.54a9.034,9.034,0,0,1,6.856,7.929,10.133,10.133,0,0,1-3.263,8.566c-3.728,3.481-8.593,2.805-11.161,2.092a5.574,5.574,0,0,0-6.854,3.834l-2.9,10.3a2.836,2.836,0,0,0,1.96,3.495l9.323,2.624a2.836,2.836,0,0,0,3.495-1.959l.609-2.163a.125.125,0,0,1,.115-.092,28.076,28.076,0,0,0,11.637-3.413c6.025-3.355,10.112-8.723,12.148-15.956,2.913-10.351-.667-17.458-4.184-21.6" transform="translate(-88.409 -98.444)" fill="#e0e0e0"/>
        <path id="Path_50980" data-name="Path 50980" d="M329.791,426.1l-.815-.229a7.346,7.346,0,1,0-3.981,14.142l.815.229a7.346,7.346,0,1,0,3.981-14.142" transform="translate(-90.604 -120.639)" fill="#e0e0e0"/>
        <path id="Path_50981" data-name="Path 50981" d="M394.714,281a14.963,14.963,0,0,0-8.095-1.7,15.266,15.266,0,0,0-7.2,2.433,10.252,10.252,0,0,0-3.463,4.015,13.622,13.622,0,0,0-1.141,6.827,1.451,1.451,0,0,0,1.582,1.351l5.075-.464a1.46,1.46,0,0,0,1.319-1.374,4.709,4.709,0,0,1,4.572-4.792,4.633,4.633,0,0,1,4.736,2.541,5.2,5.2,0,0,1,.007,4.7,5.937,5.937,0,0,1-4.961,3.047,2.857,2.857,0,0,0-2.58,3.091l.5,5.462a1.454,1.454,0,0,0,1.579,1.314l4.946-.451a1.454,1.454,0,0,0,1.314-1.579l-.1-1.148a.065.065,0,0,1,.039-.064,14.413,14.413,0,0,0,4.947-3.767,12.971,12.971,0,0,0,2.893-9.867A11.49,11.49,0,0,0,394.714,281" transform="translate(-106.233 -79.156)" fill="#f5f5f5"/>
        <path id="Path_50982" data-name="Path 50982" d="M393.778,320.175l-.433.039a3.767,3.767,0,1,0,.685,7.5l.433-.039a3.767,3.767,0,1,0-.685-7.5" transform="translate(-110.526 -90.752)" fill="#f5f5f5"/>
        <path id="Path_50983" data-name="Path 50983" d="M111.548,117.581a12.48,12.48,0,0,0-6.107-3.211,12.734,12.734,0,0,0-6.334.309,8.557,8.557,0,0,0-3.694,2.432,11.352,11.352,0,0,0-2.473,5.219,1.21,1.21,0,0,0,.961,1.445l4.179.785a1.216,1.216,0,0,0,1.371-.8,3.927,3.927,0,0,1,4.761-2.8,3.862,3.862,0,0,1,3.221,3.118,4.334,4.334,0,0,1-1.066,3.773,4.952,4.952,0,0,1-4.676,1.314,2.383,2.383,0,0,0-2.774,1.892l-.846,4.5a1.213,1.213,0,0,0,.967,1.415l4.071.765a1.213,1.213,0,0,0,1.415-.967l.178-.945a.054.054,0,0,1,.045-.043,12.023,12.023,0,0,0,4.829-1.894,10.822,10.822,0,0,0,4.572-7.258,9.583,9.583,0,0,0-2.6-9.043" transform="translate(-26.337 -32.346)" fill="#f5f5f5"/>
        <path id="Path_50984" data-name="Path 50984" d="M102.673,148.124l-.356-.067a3.142,3.142,0,1,0-1.162,6.175l.357.067a3.142,3.142,0,0,0,1.161-6.176" transform="translate(-27.947 -41.953)" fill="#f5f5f5"/>
        <path id="Path_50985" data-name="Path 50985" d="M384.145,120.255a14.962,14.962,0,0,0-8.088-1.733,15.263,15.263,0,0,0-7.212,2.4,10.252,10.252,0,0,0-3.479,4,13.615,13.615,0,0,0-1.169,6.823,1.451,1.451,0,0,0,1.576,1.357l5.077-.444a1.458,1.458,0,0,0,1.324-1.369,4.709,4.709,0,0,1,4.592-4.773,4.632,4.632,0,0,1,4.726,2.559,5.2,5.2,0,0,1-.011,4.7,5.937,5.937,0,0,1-4.974,3.028,2.857,2.857,0,0,0-2.592,3.08l.477,5.464a1.454,1.454,0,0,0,1.574,1.321l4.947-.432a1.454,1.454,0,0,0,1.321-1.574l-.1-1.148a.065.065,0,0,1,.039-.064,14.4,14.4,0,0,0,4.962-3.747,12.968,12.968,0,0,0,2.933-9.855,11.49,11.49,0,0,0-5.923-9.6" transform="translate(-103.225 -33.584)" fill="#ebebeb"/>
        <path id="Path_50986" data-name="Path 50986" d="M383.067,159.41l-.433.038a3.766,3.766,0,0,0,.655,7.5l.434-.038a3.766,3.766,0,1,0-.656-7.5" transform="translate(-107.486 -45.182)" fill="#ebebeb"/>
        <path id="Path_50987" data-name="Path 50987" d="M169.752,350.748a18.11,18.11,0,0,0-9.907-1.459,18.493,18.493,0,0,0-8.525,3.47,12.428,12.428,0,0,0-3.889,5.108,16.5,16.5,0,0,0-.876,8.335,1.758,1.758,0,0,0,2.011,1.516l6.1-.934a1.764,1.764,0,0,0,1.492-1.757,5.7,5.7,0,0,1,5.173-6.127,5.605,5.605,0,0,1,5.91,2.721,6.283,6.283,0,0,1,.355,5.679c-1.214,2.925-4.136,3.792-5.771,4.048a3.459,3.459,0,0,0-2.889,3.926l1.005,6.564a1.759,1.759,0,0,0,2,1.472l5.944-.91a1.761,1.761,0,0,0,1.472-2l-.211-1.379a.076.076,0,0,1,.042-.081,17.443,17.443,0,0,0,5.7-4.917,15.7,15.7,0,0,0,2.769-12.137c-1.01-6.6-4.858-9.7-7.909-11.133" transform="translate(-41.494 -98.961)" fill="#ebebeb"/>
        <path id="Path_50988" data-name="Path 50988" d="M171.276,398.42l-.52.08a4.56,4.56,0,0,0,1.381,9.016l.52-.08a4.56,4.56,0,0,0-1.381-9.016" transform="translate(-47.305 -112.92)" fill="#ebebeb"/>
        <path id="Path_50989" data-name="Path 50989" d="M91.374,177.15a25.448,25.448,0,0,0-13.923-2.025,25.975,25.975,0,0,0-11.968,4.9,17.451,17.451,0,0,0-5.451,7.185,23.163,23.163,0,0,0-1.21,11.712,2.469,2.469,0,0,0,2.829,2.125l8.568-1.328a2.48,2.48,0,0,0,2.092-2.473c-.037-2.745.857-7.517,7.252-8.621a7.88,7.88,0,0,1,8.31,3.808,8.837,8.837,0,0,1,.513,7.978c-1.7,4.112-5.8,5.338-8.1,5.7a4.862,4.862,0,0,0-4.05,5.523l1.429,9.219a2.474,2.474,0,0,0,2.82,2.064l8.348-1.294A2.472,2.472,0,0,0,90.9,218.8l-.3-1.938a.109.109,0,0,1,.058-.113,24.484,24.484,0,0,0,8-6.923,22.059,22.059,0,0,0,3.861-17.059c-1.436-9.268-6.851-13.611-11.14-15.621" transform="translate(-16.605 -49.572)" fill="#ebebeb"/>
        <path id="Path_50990" data-name="Path 50990" d="M93.625,244.135l-.73.113a6.407,6.407,0,1,0,1.962,12.663l.731-.113a6.407,6.407,0,0,0-1.963-12.663" transform="translate(-24.794 -69.18)" fill="#ebebeb"/>
      </g>
    </g>
    <g id="Group_6940" data-name="Group 6940">
      <g id="Group_6939" data-name="Group 6939" clip-path="url(#clip-path)">
        <path id="Path_50991" data-name="Path 50991" d="M272.758,80.782l6.458,1.076A24.967,24.967,0,1,0,274.8,74.08l-.009-.011Z" transform="translate(-77.315 -11.599)" fill="#fff"/>
        <path id="Path_50992" data-name="Path 50992" d="M272.758,80.714s.032-.14.115-.427q.13-.452.37-1.283l1.474-5.025.044-.15.091.13.008.011-.134.068a24.844,24.844,0,0,1-1.177-11.984,25.661,25.661,0,0,1,2.4-7.59,25.046,25.046,0,0,1,5.477-7.2,25.583,25.583,0,0,1,8.59-5.111,24.517,24.517,0,0,1,10.722-1.343A25.642,25.642,0,0,1,311.624,44.5a24.566,24.566,0,0,1,8.368,8.657,25.751,25.751,0,0,1,2.458,5.69c.143.492.235,1,.354,1.492a14,14,0,0,1,.3,1.495c.06.5.122,1.006.182,1.506l.087.751.013.753a25.589,25.589,0,0,1-2.269,11.386,24.462,24.462,0,0,1-6.63,8.659,25.62,25.62,0,0,1-8.838,4.837,25.141,25.141,0,0,1-9.044,1.055l-2.1-.245c-.686-.1-1.347-.278-2-.409a22.592,22.592,0,0,1-3.673-1.176,24.815,24.815,0,0,1-9.672-7.115l.044.025-4.807-.845-1.231-.222c-.276-.051-.407-.082-.407-.082s.154.017.439.059l1.255.191,4.776.752.027,0,.018.021a24.873,24.873,0,0,0,9.649,6.988,22.369,22.369,0,0,0,3.644,1.145c.649.127,1.3.3,1.983.4l2.08.234a24.917,24.917,0,0,0,8.932-1.074,25.356,25.356,0,0,0,8.714-4.8,24.153,24.153,0,0,0,6.522-8.551,25.23,25.23,0,0,0,2.223-11.223l-.012-.742-.085-.739q-.09-.741-.181-1.485a13.769,13.769,0,0,0-.3-1.472c-.118-.488-.209-.985-.349-1.47a25.426,25.426,0,0,0-2.422-5.6,24.225,24.225,0,0,0-8.242-8.531,25.322,25.322,0,0,0-10.723-3.652,24.214,24.214,0,0,0-10.575,1.306,25.294,25.294,0,0,0-8.493,5.024,24.815,24.815,0,0,0-5.438,7.1,25.478,25.478,0,0,0-2.412,7.5,24.863,24.863,0,0,0,1.081,11.9l.181.531-.315-.463-.009-.011.135-.021-1.545,4.954c-.178.559-.314.987-.409,1.291s-.15.446-.15.446" transform="translate(-77.315 -11.532)" fill="#263238"/>
        <path id="Path_50993" data-name="Path 50993" d="M309.922,58.985a10.682,10.682,0,0,0-5.659-1.7,10.9,10.9,0,0,0-5.272,1.3,7.329,7.329,0,0,0-2.706,2.649,9.723,9.723,0,0,0-1.222,4.79,1.038,1.038,0,0,0,1.044,1.057l3.64-.025a1.042,1.042,0,0,0,1.021-.9,3.363,3.363,0,0,1,3.542-3.134,3.309,3.309,0,0,1,3.218,2.092,3.712,3.712,0,0,1-.278,3.346,4.24,4.24,0,0,1-3.714,1.87,2.04,2.04,0,0,0-2.021,2.045l.027,3.917a1.039,1.039,0,0,0,1.045,1.03l3.546-.024a1.038,1.038,0,0,0,1.03-1.044l-.006-.823a.047.047,0,0,1,.031-.044,10.288,10.288,0,0,0,3.748-2.383,9.263,9.263,0,0,0,2.652-6.848,8.2,8.2,0,0,0-3.667-7.173" transform="translate(-83.638 -16.239)" fill="#ff725e"/>
        <path id="Path_50994" data-name="Path 50994" d="M307.114,86.608l-.31,0a2.69,2.69,0,1,0,.037,5.38l.31,0a2.69,2.69,0,1,0-.037-5.38" transform="translate(-86.208 -24.55)" fill="#ff725e"/>
      </g>
    </g>
    <g id="Group_6951" data-name="Group 6951">
      <g id="Group_6950" data-name="Group 6950" clip-path="url(#clip-path)">
        <path id="Path_50995" data-name="Path 50995" d="M269.646,135.525c-16.918-11.379-37.034-15.434-50.217-15.434-12.347,0-30.517,1.947-46.963,11.224a65.139,65.139,0,0,0-24.222,23.4c-6.94,11.564-10.7,25.871-11.164,42.528A9.219,9.219,0,0,0,146.3,206.7h32.374a9.264,9.264,0,0,0,9.134-7.927c1.436-10.153,7.461-27.247,31.688-27.664,18.456-.317,26.071,13.044,28.489,18.8,3.935,9.374,2.937,20.489-2.67,29.734-8.615,14.2-24.463,16.378-33.142,16.41a18.151,18.151,0,0,0-18.1,18.063v34.837a9.237,9.237,0,0,0,9.227,9.226h31.542a9.237,9.237,0,0,0,9.227-9.226v-7.32a.408.408,0,0,1,.279-.387,91.467,91.467,0,0,0,33.47-20.968c15.926-15.834,24-36.27,24-60.741,0-35.021-17.5-54.14-32.174-64.012" transform="translate(-38.855 -34.041)" fill="#ff725e"/>
        <path id="Path_50996" data-name="Path 50996" d="M241.415,391.307h2.546a22.718,22.718,0,1,1,0,45.436h-2.546a22.718,22.718,0,1,1,0-45.436" transform="translate(-61.991 -110.919)" fill="#263238"/>
        <path id="Path_50997" data-name="Path 50997" d="M225.682,365.779h31.529a9.092,9.092,0,0,0,9.223-8.934V342.6a.4.4,0,0,1,.279-.374,76.32,76.32,0,0,0,14.841-7.216c-20.145-.141-56.864-.347-65.094-.047v21.88a9.092,9.092,0,0,0,9.223,8.934" transform="translate(-61.357 -94.905)" fill="#263238"/>
        <path id="Path_50998" data-name="Path 50998" d="M237.853,126.236,217.62,67.479c-4.273-14.712-16.4-24.488-30.984-19.81l-1.323.511A27.387,27.387,0,0,0,168.92,81.509c3.774,12.731,8.108,26.749,10.748,33.341,5.467,13.646,19.78,9.816,19.78,9.816.031-.011,3.185,9.1,4.565,13.184l7.41,7.322,3.061-3.344Z" transform="translate(-47.56 -13.178)" fill="#ffc09d"/>
        <path id="Path_50999" data-name="Path 50999" d="M211.973,150.774A35.5,35.5,0,0,0,227.787,138.6s-.312,11.968-14.471,16.02Z" transform="translate(-60.085 -39.287)" fill="#ff9b6c"/>
        <path id="Path_51000" data-name="Path 51000" d="M183.142,107.26a2.1,2.1,0,0,0,2.651,1.246,2.008,2.008,0,0,0,1.336-2.545,2.1,2.1,0,0,0-2.65-1.248,2.009,2.009,0,0,0-1.338,2.547" transform="translate(-51.883 -29.651)" fill="#263238"/>
        <path id="Path_51001" data-name="Path 51001" d="M176.353,99.758c.341.161,1.4-1.51,3.51-2.318,2.1-.838,4.061-.352,4.189-.7.068-.157-.357-.523-1.22-.753a5.757,5.757,0,0,0-3.476.243,5.526,5.526,0,0,0-2.671,2.164c-.456.747-.5,1.294-.333,1.362" transform="translate(-49.964 -27.163)" fill="#263238"/>
        <path id="Path_51002" data-name="Path 51002" d="M207.737,97.007c.342.161,1.4-1.51,3.511-2.318,2.1-.838,4.061-.351,4.19-.7.067-.157-.355-.523-1.22-.752a5.762,5.762,0,0,0-3.476.242,5.539,5.539,0,0,0-2.671,2.164c-.454.747-.5,1.294-.333,1.362" transform="translate(-58.86 -26.383)" fill="#263238"/>
        <path id="Path_51003" data-name="Path 51003" d="M201.192,110.438a14.938,14.938,0,0,0-3.661.7c-.56.153-1.111.243-1.343-.09a2.942,2.942,0,0,1-.257-1.734q0-2.246.009-4.712c-.044-6.687-.3-12.1-.567-12.1s-.453,5.429-.408,12.115c.024,1.644.045,3.212.068,4.711a3.341,3.341,0,0,0,.537,2.22,1.447,1.447,0,0,0,1.189.445,3.921,3.921,0,0,0,.963-.226,14.706,14.706,0,0,0,3.471-1.336" transform="translate(-55.262 -26.222)" fill="#263238"/>
        <path id="Path_51004" data-name="Path 51004" d="M200.936,80.137c.494.427,2.32-.929,4.789-1.943,2.449-1.065,4.693-1.432,4.731-2.084.008-.307-.6-.629-1.644-.726a8.985,8.985,0,0,0-7.252,3.068c-.658.818-.85,1.478-.623,1.685" transform="translate(-56.931 -21.361)" fill="#263238"/>
        <path id="Path_51005" data-name="Path 51005" d="M172.847,91.022c.618.318,2.159-.818,4.225-1.608,2.042-.851,3.951-1.091,4.169-1.745.087-.31-.367-.689-1.3-.862a7.123,7.123,0,0,0-3.739.485,7,7,0,0,0-3.025,2.216c-.551.765-.608,1.35-.327,1.513" transform="translate(-48.948 -24.584)" fill="#263238"/>
        <path id="Path_51006" data-name="Path 51006" d="M240.931,88.763c.194-.191,8.345-6.427,11.667,3.063s-6.891,10.869-7,10.6-4.665-13.665-4.665-13.665" transform="translate(-68.294 -24.541)" fill="#ffc09d"/>
        <path id="Path_51007" data-name="Path 51007" d="M249.06,99.01c.031-.045.206.057.53.088a1.749,1.749,0,0,0,1.245-.408c.873-.719,1.16-2.606.608-4.333a5.787,5.787,0,0,0-1.291-2.2,2.024,2.024,0,0,0-1.688-.834.892.892,0,0,0-.817.795c-.034.31.092.479.048.512-.019.033-.259-.088-.32-.507a1.115,1.115,0,0,1,.166-.725,1.321,1.321,0,0,1,.829-.562,2.463,2.463,0,0,1,2.243.867,5.936,5.936,0,0,1,1.5,2.444c.609,1.934.257,4.066-.977,4.943a1.877,1.877,0,0,1-1.6.278c-.375-.131-.5-.326-.473-.355" transform="translate(-70.118 -25.733)" fill="#ff9b6c"/>
        <path id="Path_51008" data-name="Path 51008" d="M211.817,116.194c-.335.091.394,2.281-.96,4.463s-3.765,2.721-3.68,3.032c.015.148.662.252,1.657-.052a5.753,5.753,0,0,0,3.113-2.407,5.01,5.01,0,0,0,.664-3.7c-.223-.944-.648-1.4-.794-1.341" transform="translate(-58.725 -32.934)" fill="#263238"/>
        <path id="Path_51009" data-name="Path 51009" d="M136.3,70.987a2.382,2.382,0,0,1,.593-1.684,7.327,7.327,0,0,1,3.344-1.826,21.17,21.17,0,0,0,7.909-5.237,10.479,10.479,0,0,1-3.182-.891,6.313,6.313,0,0,1-3.8-5.316,1.4,1.4,0,0,1,.424-1.169c.55-.406,1.3.009,1.9.337a5.433,5.433,0,0,0,5.544.343,8.922,8.922,0,0,0,3.229-2.337c.026-.057.046-.118.072-.174.314-.683.623-1.339.932-1.976l0-.005v0c2.321-4.8,4.525-8.328,7.236-10.713,3.973-3.5,11.45-6.979,16.725-7.413s10.99,1.954,13.4,6.664c1.9-3.243,5.972-4.655,9.737-4.492l.069-.065c4.134.015,7.587,3.16,9.99,6.523.131.184.256.373.384.56a15.435,15.435,0,0,0,6.643,3.085c.428.082.924.191,1.111.585a1.258,1.258,0,0,1-.286,1.2,7.761,7.761,0,0,1-2.537,2.282,17.426,17.426,0,0,0,2.127,2.151c.662.556,1.45,1.223,1.346,2.082a1.641,1.641,0,0,1-1.372,1.277,4.807,4.807,0,0,1-1.982-.171l2.265,2.509a9.2,9.2,0,0,1-4.088,1.141c.454,3.777,2.152,10.469,2.087,13.161-2.5.931-3.209.873-4.331,1.741-1.45,1.124.2,3.81-2.228,3.737-1.236-.038-4.359-3.573-5.114-4.552a57.424,57.424,0,0,1-10.421-22.1,18.461,18.461,0,0,0-6.742-1.986l.217.09c-4.352.019-9.205.24-12.243,3.357-2.356,2.418-2.991,5.97-4.291,9.084-2.466,5.9-6.2,9.907-12.138,12.29.931,4.379,3.183,11.282,4.355,15.261L157.1,81.7l.009.032c-.431-.363-.817-.747-1.194-1.134l-.123-.114-.006-.018a25.657,25.657,0,0,0-1.882-1.835l-.026.047a2.587,2.587,0,0,1-4.716-2.008,5.8,5.8,0,0,1,.762-1.6,4.093,4.093,0,0,1-3.343,2.249,3.211,3.211,0,0,1-3.2-2.241,2.731,2.731,0,0,1,.808-2.607,9.216,9.216,0,0,1-5.333.653c-1.174-.213-2.456-.792-2.557-2.138" transform="translate(-38.633 -9.32)" fill="#263238"/>
        <path id="Path_51010" data-name="Path 51010" d="M206.816,46.62a12.712,12.712,0,0,1,1.841.782,10.556,10.556,0,0,1,3.754,3.858,18.559,18.559,0,0,1,1.6,3.4c.456,1.276.835,2.681,1.245,4.158a38.842,38.842,0,0,0,1.5,4.588,16.929,16.929,0,0,0,1.159,2.291,5.294,5.294,0,0,0,1.8,1.984,2.222,2.222,0,0,0,2.19-.032,3.3,3.3,0,0,0,1.412-1.617,7.621,7.621,0,0,0,.094-4l-.279.138a12.334,12.334,0,0,0,2.713,2.313,4.386,4.386,0,0,0,3.219.519,2.822,2.822,0,0,0,1.342-.755,2.443,2.443,0,0,0,.635-1.3,2.531,2.531,0,0,0-.138-1.334,1.829,1.829,0,0,0-.826-.922l-.1.183a9.489,9.489,0,0,0,3.77,1.187,8.482,8.482,0,0,0,1.05.034,1.581,1.581,0,0,0,.36-.035,1.842,1.842,0,0,0-.36-.023c-.236-.012-.587-.028-1.038-.087a9.792,9.792,0,0,1-3.677-1.256l-.1.183a1.887,1.887,0,0,1,.819,2.03,2.206,2.206,0,0,1-.58,1.157,2.566,2.566,0,0,1-1.222.669,4.108,4.108,0,0,1-3-.514,12.182,12.182,0,0,1-2.629-2.272l-.356-.375.077.513A7.367,7.367,0,0,1,223,65.906a2.978,2.978,0,0,1-1.263,1.446,1.872,1.872,0,0,1-1.862.029,5.016,5.016,0,0,1-1.672-1.86,16.835,16.835,0,0,1-1.14-2.242,39.524,39.524,0,0,1-1.5-4.544c-.418-1.473-.81-2.881-1.283-4.17a18.54,18.54,0,0,0-1.659-3.433,10.413,10.413,0,0,0-3.9-3.847,5.971,5.971,0,0,0-1.905-.665" transform="translate(-58.623 -13.215)" fill="#455a64"/>
        <path id="Path_51011" data-name="Path 51011" d="M153.535,73.111a.535.535,0,0,0,.145.055l.436.131a4.863,4.863,0,0,0,.721.17,7.856,7.856,0,0,0,1,.147,13.046,13.046,0,0,0,6.317-1.025,16.67,16.67,0,0,0,7.287-6.045,28.875,28.875,0,0,0,4.274-10.83c.418-2.036.633-4.049.98-5.959a19.483,19.483,0,0,1,1.612-5.318,10.05,10.05,0,0,1,3.144-3.837,7.21,7.21,0,0,1,2.023-.986,7.943,7.943,0,0,1,2.062-.31,8.523,8.523,0,0,1,5.79,2.2,10.2,10.2,0,0,1,1.45,1.829.492.492,0,0,0-.062-.141l-.216-.4a7.334,7.334,0,0,0-1.079-1.382,8.366,8.366,0,0,0-2.3-1.558,8.606,8.606,0,0,0-3.588-.79,8.1,8.1,0,0,0-2.135.3,7.422,7.422,0,0,0-2.112,1.007,10.281,10.281,0,0,0-3.264,3.929,19.615,19.615,0,0,0-1.661,5.4c-.353,1.925-.571,3.935-.985,5.952a28.891,28.891,0,0,1-4.2,10.718,16.581,16.581,0,0,1-7.12,6,13.243,13.243,0,0,1-6.211,1.114,20.912,20.912,0,0,1-2.314-.369" transform="translate(-43.521 -11.072)" fill="#455a64"/>
        <path id="Path_51012" data-name="Path 51012" d="M148.773,76.825a2.293,2.293,0,0,0,.62.171,11.332,11.332,0,0,0,1.738.229,15.21,15.21,0,0,0,2.6-.056,16.019,16.019,0,0,0,6.056-1.918,15.228,15.228,0,0,0,2.161-1.453,11.471,11.471,0,0,0,1.288-1.188,2.307,2.307,0,0,0,.408-.5c-.047-.046-.674.619-1.846,1.492a17.336,17.336,0,0,1-2.163,1.367,17.181,17.181,0,0,1-5.942,1.882,17.462,17.462,0,0,1-2.557.128c-1.46-.039-2.357-.221-2.368-.158" transform="translate(-42.171 -20.441)" fill="#455a64"/>
        <path id="Path_51013" data-name="Path 51013" d="M185.039,217.308c-.124.036,1.5,8.17,3.091,16.607h.5c-1.59-8.437-3.47-16.643-3.593-16.607" transform="translate(-52.449 -61.598)" fill="#263238"/>
        <path id="Path_51014" data-name="Path 51014" d="M186.987,213.606a9.516,9.516,0,0,0,9.475-7.826c1.445-10.138,7.23-27.3,31.617-27.714,18.577-.316,26.4,12.833,28.587,18.682a34.467,34.467,0,0,1-2.6,29.785c-8.672,14.183-24.624,16.354-33.361,16.386a18.2,18.2,0,0,0-18.222,18.037v37.879l50.325-.947v-9.455a.408.408,0,0,1,.281-.386,87.837,87.837,0,0,0,26.785-15L276.6,229.426s9.577-18.407,9.1-22.549c-4.336-37.836-17.2-59.244-22.434-61.241-5.872-2.241-28.543-1.15-28.543-1.15s-9.792,18.142-23.528,20.152c-7.643,1.119-10.434-8.427-10.434-8.427l-17.755,10.409c-12.636,6.374-15.088,31.172-15.32,46.985Z" transform="translate(-47.532 -40.88)" fill="#455a64"/>
        <g id="Group_6943" data-name="Group 6943" transform="translate(190.476 195.013)" opacity="0.3">
          <g id="Group_6942" data-name="Group 6942">
            <g id="Group_6941" data-name="Group 6941" clip-path="url(#clip-path-5)">
              <path id="Path_51015" data-name="Path 51015" d="M273.127,272.158c10.144,2.582,20.145,5.849,30.289,8.432a3.872,3.872,0,0,1,2.062,1,3.477,3.477,0,0,1,.244,3.27,19.912,19.912,0,0,1-6.109,8.908,13.832,13.832,0,0,1-7.78,3.8c-3.262.255-6.4-1.258-9.155-3.018a48.25,48.25,0,0,1-16.852-18.538s2.378-.979,4.2-1.952a32.5,32.5,0,0,0,3.1-1.905" transform="translate(-265.826 -272.158)"/>
            </g>
          </g>
        </g>
        <path id="Path_51016" data-name="Path 51016" d="M285.84,215.267c4.056,9.359,3.027,20.459-2.752,29.689a32.033,32.033,0,0,1-11.747,11.236,95.614,95.614,0,0,0,14.483,13.234c5.181,3.677,17.123,2.632,21.651-5.418,5.586-9.932,6.053-35.3,6.053-35.3l1.061-15.3-31.239-4.785-.251.856a33.7,33.7,0,0,1,2.741,5.786" transform="translate(-76.914 -59.136)" fill="#ffc09d"/>
        <path id="Path_51017" data-name="Path 51017" d="M205.976,196.756l-1.779,2.8c-1.352.933-2.639.421-3.474-1.313l-19.231-29.271L186.177,166l21.24,28.07a2.8,2.8,0,0,1-1.442,2.689" transform="translate(-51.445 -47.053)" fill="#455a64"/>
        <path id="Path_51018" data-name="Path 51018" d="M149.354,153.619a21.4,21.4,0,1,1,19.554.8,21.291,21.291,0,0,1-19.554-.8m20.381-36a19.958,19.958,0,1,0,8.282,8.969,19.963,19.963,0,0,0-8.282-8.969" transform="translate(-39.252 -32.198)" fill="#263238"/>
        <path id="Path_51019" data-name="Path 51019" d="M150.626,152.366a21.4,21.4,0,1,1,19.554.8,21.287,21.287,0,0,1-19.554-.8m20.381-36a19.958,19.958,0,1,0,8.282,8.969,19.963,19.963,0,0,0-8.282-8.969" transform="translate(-39.613 -31.843)" fill="#455a64"/>
        <path id="Path_51020" data-name="Path 51020" d="M184.949,135.384a2.074,2.074,0,0,1-.022-.352c-.016-.23.011-.57-.041-1a15.306,15.306,0,0,0-.709-3.614,19.388,19.388,0,0,0-.937-2.366,20.682,20.682,0,0,0-1.465-2.527A19.735,19.735,0,0,0,179.765,123a18.937,18.937,0,0,0-2.57-2.317,17.616,17.616,0,0,0-2.964-1.779,19.162,19.162,0,0,0-3.035-1.086,18.147,18.147,0,0,0-5.42-.55,17.378,17.378,0,0,0-3.642.565c-.426.1-.742.223-.965.28a2.029,2.029,0,0,1-.341.09,1.972,1.972,0,0,1,.326-.133c.219-.072.532-.214.957-.323a16.246,16.246,0,0,1,3.657-.641,17.912,17.912,0,0,1,5.482.507,18.925,18.925,0,0,1,3.077,1.087,17.654,17.654,0,0,1,3.007,1.8,18.841,18.841,0,0,1,2.6,2.348,19.582,19.582,0,0,1,2.022,2.557,20.335,20.335,0,0,1,1.46,2.563,18.824,18.824,0,0,1,.921,2.4,14.455,14.455,0,0,1,.643,3.656,9.351,9.351,0,0,1,0,1.01,2.054,2.054,0,0,1-.024.351" transform="translate(-45.588 -33.184)" fill="#fff"/>
        <path id="Path_51021" data-name="Path 51021" d="M163.315,165.153c.015-.053.992.311,2.641.536l.648.078c.225.026.462.026.706.041.487.039,1.009.014,1.558,0a16.61,16.61,0,0,0,6.843-1.844c.48-.267.944-.507,1.346-.785.2-.135.408-.255.59-.39l.52-.393c1.313-1.023,1.975-1.829,2.014-1.791a4.39,4.39,0,0,1-.466.558,6.253,6.253,0,0,1-.6.611,10.339,10.339,0,0,1-.85.749l-.517.409c-.181.14-.386.264-.589.406a15.531,15.531,0,0,1-1.352.813,16.1,16.1,0,0,1-6.932,1.868A15.366,15.366,0,0,1,167.3,166c-.246-.019-.485-.024-.713-.054l-.653-.093a10.529,10.529,0,0,1-1.111-.221A6.249,6.249,0,0,1,164,165.4a4.356,4.356,0,0,1-.684-.248" transform="translate(-46.293 -45.525)" fill="#fff"/>
        <path id="Path_51022" data-name="Path 51022" d="M179.006,142.817c-.045.044-2.836-2.749-6.232-6.238s-6.114-6.354-6.068-6.4,2.835,2.749,6.232,6.239,6.113,6.354,6.068,6.4" transform="translate(-47.254 -36.9)" fill="#fff"/>
        <path id="Path_51023" data-name="Path 51023" d="M171.8,147.539a1.33,1.33,0,0,1-.2-.2l-.549-.6-2-2.22c-1.682-1.877-4.014-4.463-6.62-7.29s-5-5.361-6.73-7.191l-2.051-2.169-.552-.6a1.268,1.268,0,0,1-.181-.219,1.338,1.338,0,0,1,.214.186l.583.566c.5.494,1.222,1.217,2.1,2.119,1.764,1.8,4.172,4.319,6.781,7.148s4.921,5.434,6.574,7.338c.826.952,1.489,1.728,1.941,2.269l.517.627a1.35,1.35,0,0,1,.168.229" transform="translate(-43.347 -36.015)" fill="#fff"/>
        <g id="Group_6946" data-name="Group 6946" transform="translate(106.371 85.304)" opacity="0.3">
          <g id="Group_6945" data-name="Group 6945">
            <g id="Group_6944" data-name="Group 6944" clip-path="url(#clip-path-6)">
              <path id="Path_51024" data-name="Path 51024" d="M153.081,119.05,179.366,147.6a20.73,20.73,0,0,1-4.076,4.27l-26.84-29.22a15.344,15.344,0,0,1,4.631-3.6" transform="translate(-148.45 -119.05)" fill="#fff"/>
            </g>
          </g>
        </g>
        <g id="Group_6949" data-name="Group 6949" transform="translate(103.381 92.2)" opacity="0.3">
          <g id="Group_6948" data-name="Group 6948">
            <g id="Group_6947" data-name="Group 6947" clip-path="url(#clip-path-7)">
              <path id="Path_51025" data-name="Path 51025" d="M145.008,128.674l25.852,27.819s.239.131-1.541.58l-25.041-26.987a3.56,3.56,0,0,1,.73-1.412" transform="translate(-144.278 -128.674)" fill="#fff"/>
            </g>
          </g>
        </g>
        <path id="Path_51026" data-name="Path 51026" d="M223.242,185.184c-5.521-4.434-19.054-15.279-19.672-15.568-.778-.364-12.688-4.6-14.969-3.236s-8.4,9.037-8.4,9.037.58,4.775,5.917,1.358l4.773-3.057-.009,0,5.672,1.326s-6.917,2.889-8.381,4.407-3.776,7.336-2.334,8.675a5.6,5.6,0,0,0,3.118,1.453s-2.855,4.056,2.21,6.5c0,0,.74,3.409,3.239,4.746s7.154.863,7.154.863a2.193,2.193,0,0,0,.555-3.394,7.2,7.2,0,0,0-4.561-2.41l3.666-2.139a16.864,16.864,0,0,1,4.733,2.767,41.015,41.015,0,0,1,6.69-6.708c3.752-2.719,10.6-4.63,10.6-4.63" transform="translate(-51.08 -47.086)" fill="#ffc09d"/>
        <path id="Path_51027" data-name="Path 51027" d="M204.107,195.239a1.871,1.871,0,0,0-.545.032,8.257,8.257,0,0,0-1.448.336,9.564,9.564,0,0,0-6.389,6.947,8.326,8.326,0,0,0-.214,1.472,1.876,1.876,0,0,0,.014.545c.051,0,.062-.775.386-1.97a9.947,9.947,0,0,1,6.265-6.814c1.163-.422,1.939-.5,1.93-.549" transform="translate(-55.417 -55.34)" fill="#ff9b6c"/>
        <path id="Path_51028" data-name="Path 51028" d="M203.427,186.627a2.418,2.418,0,0,0-.582.041,5.454,5.454,0,0,0-.675.111,8.918,8.918,0,0,0-.883.21,13.277,13.277,0,0,0-2.211.833,14,14,0,0,0-4.564,3.515,13.289,13.289,0,0,0-1.37,1.925c-.181.284-.306.562-.428.8a5.463,5.463,0,0,0-.279.625,2.387,2.387,0,0,0-.188.552c.049.021.353-.752,1.06-1.877A14.727,14.727,0,0,1,194.7,191.5a16.21,16.21,0,0,1,2.076-1.944,19.067,19.067,0,0,1,2.509-1.7,11.589,11.589,0,0,1,2.056-.683c1.268-.4,2.093-.492,2.085-.545" transform="translate(-54.493 -52.899)" fill="#ff9b6c"/>
        <path id="Path_51029" data-name="Path 51029" d="M207.472,176.666a1.571,1.571,0,0,0-.77-.173,4.241,4.241,0,0,0-1.879.336,3.557,3.557,0,0,0-1.546,1.12,1.571,1.571,0,0,0-.411.674,5.4,5.4,0,0,1,4.607-1.957" transform="translate(-57.503 -50.026)" fill="#ff9b6c"/>
        <path id="Path_51030" data-name="Path 51030" d="M294.747,145.4s17.477,1.677,23.025,16.86c4.4,12.052,6.8,48.156,5.692,48.892l-30.855-.987c-.406-8.8-2.777-15.592-6.1-19.984Z" transform="translate(-81.213 -41.215)" fill="#455a64"/>
        <path id="Path_51031" data-name="Path 51031" d="M295.681,235.784a2.465,2.465,0,0,1,.606.337c.378.235.909.6,1.549,1.073a41.479,41.479,0,0,1,4.7,4.074,48.123,48.123,0,0,1,4.088,4.682c.481.633.858,1.154,1.1,1.525a2.486,2.486,0,0,1,.355.6,22.885,22.885,0,0,1-1.665-1.955c-1.013-1.217-2.442-2.875-4.146-4.584a56.383,56.383,0,0,0-4.592-4.128c-1.233-.992-2.026-1.571-1.993-1.619" transform="translate(-83.813 -66.834)" fill="#ff9b6c"/>
        <path id="Path_51032" data-name="Path 51032" d="M289.4,183.955c.1.017-.464,3.871-1.265,8.608s-1.531,8.563-1.633,8.546.465-3.871,1.265-8.609,1.531-8.563,1.633-8.545" transform="translate(-81.208 -52.143)" fill="#263238"/>
        <path id="Path_51033" data-name="Path 51033" d="M236.357,332.532a2.664,2.664,0,0,1,.512-.077l1.476-.149,5.427-.513c4.58-.44,10.9-1.1,17.871-1.981s13.257-1.817,17.8-2.532l5.383-.854,1.466-.223a2.824,2.824,0,0,1,.516-.053,2.669,2.669,0,0,1-.5.127l-1.454.292c-1.263.248-3.1.581-5.365.971-4.538.782-10.826,1.759-17.8,2.643s-13.3,1.5-17.894,1.872c-2.3.187-4.154.321-5.439.4l-1.48.08a2.732,2.732,0,0,1-.519,0" transform="translate(-66.997 -92.449)" fill="#263238"/>
        <path id="Path_51034" data-name="Path 51034" d="M232.551,327.915a8.382,8.382,0,0,1,1.272-.115l3.471-.184,11.451-.588,11.449-.663,3.471-.2a8.562,8.562,0,0,1,1.276-.024,8.245,8.245,0,0,1-1.265.17c-.816.085-2,.192-3.462.313-2.926.242-6.973.528-11.447.772s-8.527.4-11.462.479c-1.467.039-2.655.062-3.477.066a8.333,8.333,0,0,1-1.276-.03" transform="translate(-65.918 -92.445)" fill="#263238"/>
        <path id="Path_51035" data-name="Path 51035" d="M163.928,236.129a3.793,3.793,0,0,1,.559-1.225,3.711,3.711,0,0,1,2.182-1.506,3.75,3.75,0,0,1,3.913,1.635,2.229,2.229,0,0,1,1.663-2.147,2.55,2.55,0,0,1,2.429.731,3.666,3.666,0,0,1,1.253,2.052c.751-1.688,4.616-1.482,5.087-.214,0,0,3.325-3.64,5.025-1.85.707.743.4,1.885-.063,3.027-.626,1.525-1.036,2.162-1.854,3.841l-3.148.172c-.265.985-.823,4.991-.942,6a6.978,6.978,0,0,1-.859,2.912,3.038,3.038,0,0,1-2.5,1.53,1.974,1.974,0,0,1-1.966-1.907,4.8,4.8,0,0,1-1.192,2.28,2.579,2.579,0,0,1-2.38.739,1.785,1.785,0,0,1-1.337-1.95c-1.123.777-2.782.087-3.493-1.078a7.116,7.116,0,0,1-.687-3.977,9.029,9.029,0,0,0-.327-3.712,3.394,3.394,0,0,1-.249-.53,6.346,6.346,0,0,1-.042-.9,6.841,6.841,0,0,0-.378-1.864c-.048-.132-.1-.262-.158-.389-.153-.338-.378-.626-.552-.949a.615.615,0,0,1-.079-.222,1.493,1.493,0,0,1,.09-.505" transform="translate(-46.44 -65.989)" fill="#ffc09d"/>
        <path id="Path_51036" data-name="Path 51036" d="M157.8,235a2.931,2.931,0,0,0-2.319.771,5.689,5.689,0,0,0-.743,3.519c1.167.221,1.788-.039,2.955.181.246.047.451-.015.655.13.538.382.451,1.669.668,2.292a2.244,2.244,0,0,0,2.834,1.212,3.011,3.011,0,0,0,1.819-2.682,4.657,4.657,0,0,0-1.185-3.138A6.5,6.5,0,0,0,157.8,235" transform="translate(-43.858 -66.613)" fill="#ffc09d"/>
        <path id="Path_51037" data-name="Path 51037" d="M186.741,245.98c-.119-.025.361-2.16.665-4.817a21.206,21.206,0,0,0,.128-3.408,11.058,11.058,0,0,1-.09-1.421,3.665,3.665,0,0,1,.353,1.4,14.92,14.92,0,0,1-.019,3.472,26.9,26.9,0,0,1-.605,3.407,5.145,5.145,0,0,1-.431,1.369" transform="translate(-52.928 -66.991)" fill="#ff9b6c"/>
        <path id="Path_51038" data-name="Path 51038" d="M178.816,250.7a12.226,12.226,0,0,1,.312-2.035c.228-1.249.547-2.971.79-4.885a35.334,35.334,0,0,0,.3-4.924c-.019-1.263-.11-2.043-.049-2.052a7.5,7.5,0,0,1,.313,2.042,26.257,26.257,0,0,1-.2,4.98,47.048,47.048,0,0,1-.9,4.893,10.445,10.445,0,0,1-.57,1.981" transform="translate(-50.683 -67.124)" fill="#ff9b6c"/>
        <path id="Path_51039" data-name="Path 51039" d="M172.108,251.18a20.963,20.963,0,0,1,.393-2.265,43.65,43.65,0,0,0,.6-11.009,20.792,20.792,0,0,1-.145-2.294,2,2,0,0,1,.158.6c.08.391.167.961.25,1.67a33.615,33.615,0,0,1-.6,11.085c-.159.7-.308,1.253-.43,1.632a2.005,2.005,0,0,1-.222.58" transform="translate(-48.783 -66.786)" fill="#ff9b6c"/>
        <path id="Path_51040" data-name="Path 51040" d="M163.267,237.754a2,2,0,0,1,.982.5,4.981,4.981,0,0,1,1.593,2.127,4.258,4.258,0,0,1,.212,2.656c-.208.693-.643.933-.658.889a3.66,3.66,0,0,0,.4-.954,4.655,4.655,0,0,0-.3-2.455,5.679,5.679,0,0,0-1.416-2.061c-.477-.443-.84-.644-.812-.7" transform="translate(-46.279 -67.391)" fill="#ff9b6c"/>
      </g>
    </g>
  </g>
</svg>
