<svg xmlns="http://www.w3.org/2000/svg" xmlns:xlink="http://www.w3.org/1999/xlink" width="289.154" height="223.091" viewBox="0 0 289.154 223.091">
  <defs>
    <clipPath id="clip-path">
      <rect id="Rectangle_1795" data-name="Rectangle 1795" width="289.154" height="223.091" fill="none"/>
    </clipPath>
    <clipPath id="clip-path-3">
      <rect id="Rectangle_1784" data-name="Rectangle 1784" width="185.995" height="143.216" fill="none"/>
    </clipPath>
    <clipPath id="clip-path-5">
      <rect id="Rectangle_1786" data-name="Rectangle 1786" width="16.27" height="19.053" fill="none"/>
    </clipPath>
    <clipPath id="clip-path-6">
      <rect id="Rectangle_1787" data-name="Rectangle 1787" width="6.253" height="13.328" fill="none"/>
    </clipPath>
    <clipPath id="clip-path-7">
      <rect id="Rectangle_1790" data-name="Rectangle 1790" width="279.933" height="4.081" fill="none"/>
    </clipPath>
  </defs>
  <g id="Group_6973" data-name="Group 6973" transform="translate(0)">
    <g id="Group_6972" data-name="Group 6972" transform="translate(0)" clip-path="url(#clip-path)">
      <g id="Group_6958" data-name="Group 6958">
        <g id="Group_6957" data-name="Group 6957" clip-path="url(#clip-path)">
          <g id="Group_6956" data-name="Group 6956" transform="translate(55.319 74.434)" style="mix-blend-mode: multiply;isolation: isolate">
            <g id="Group_6955" data-name="Group 6955">
              <g id="Group_6954" data-name="Group 6954" clip-path="url(#clip-path-3)">
                <path id="Path_51041" data-name="Path 51041" d="M87.845,237.245c-1.73-1.814-27.1-52.6,1.154-99.152s99.187-41.112,127.443-22.974,42.1,41.716,44.98,66.5-16.147,63.482-16.147,63.482Z" transform="translate(-75.724 -101.889)" fill="#ddecff"/>
              </g>
            </g>
          </g>
        </g>
      </g>
      <g id="Group_6969" data-name="Group 6969">
        <g id="Group_6968" data-name="Group 6968" clip-path="url(#clip-path)">
          <path id="Path_51042" data-name="Path 51042" d="M351.284,161.441h-32.6a3.653,3.653,0,0,1-3.653-3.653V141.515a3.653,3.653,0,0,1,3.653-3.653h32.6a3.653,3.653,0,0,1,3.653,3.653v16.273a3.653,3.653,0,0,1-3.653,3.653" transform="translate(-84.89 -37.149)" fill="#60a8ff"/>
          <path id="Path_51043" data-name="Path 51043" d="M340.439,178.242,345.605,166H335.274Z" transform="translate(-90.344 -44.73)" fill="#60a8ff"/>
          <path id="Path_51044" data-name="Path 51044" d="M342.176,147.016h9.331v1.365l4.575-2.638-4.575-2.637v1.365h-9.331Z" transform="translate(-92.203 -38.562)" fill="#223a7a"/>
          <path id="Path_51045" data-name="Path 51045" d="M356.082,155.3H346.75v-1.365l-4.575,2.638,4.575,2.637v-1.365h9.331Z" transform="translate(-92.203 -41.479)" fill="#fff"/>
          <path id="Path_51046" data-name="Path 51046" d="M331.872,154.727l-.444.161a14.091,14.091,0,0,1-2.1-3.3,11.852,11.852,0,0,1-.744-3.824l.324-.135-1.973-4.722a3.877,3.877,0,0,0-.958,1.086c-1.117,1.887-1.006,4.783.117,7.611s2.325,5.353,4.515,6.939a4.33,4.33,0,0,0,3.262.964Z" transform="translate(-87.626 -38.507)" fill="#223a7a"/>
          <path id="Path_51047" data-name="Path 51047" d="M336.049,158.3l-.614.223,2.02,4.835a3.586,3.586,0,0,0,.611-.264,1.176,1.176,0,0,0,.531-1.465l-1.056-2.658a1.174,1.174,0,0,0-1.492-.671" transform="translate(-90.387 -42.637)" fill="#223a7a"/>
          <path id="Path_51048" data-name="Path 51048" d="M329.394,141.746a4.634,4.634,0,0,0-.79.371l2.015,4.823.679-.283a1.175,1.175,0,0,0,.641-1.51l-1.059-2.719a1.172,1.172,0,0,0-1.485-.682" transform="translate(-88.546 -38.177)" fill="#223a7a"/>
          <path id="Path_51049" data-name="Path 51049" d="M79.41,248.012V193.6s-.6-14.661,7.1-18.893,40.205-1.965,40.205-1.965v75.271Z" transform="translate(-21.395 -46.384)" fill="#1c83ff"/>
          <path id="Path_51050" data-name="Path 51050" d="M155.393,103.241s-1.965,16.475-2.721,17.835l-.756,1.36-3.778,2.569s7.255,10.278,16.173,11.941,8.162-3.628,8.162-3.628l-1.36-2.872,1.814-15.719s-16.173-7.406-17.533-11.487" transform="translate(-39.918 -27.82)" fill="#ff9d8c"/>
          <path id="Path_51051" data-name="Path 51051" d="M141.724,133.948l5.895-2.569a27.744,27.744,0,0,0,12.545,9.824c8.766,3.628,8.918,1.511,9.371,0a5.745,5.745,0,0,0-.151-3.174l.649-5.292,3.506,1.169,12.169,98.439-31.288,1.511Z" transform="translate(-38.189 -35.402)" fill="#fff"/>
          <path id="Path_51052" data-name="Path 51052" d="M181.241,133.379s2.116,4.887,4.081,16.374a390.405,390.405,0,0,1,4.232,44.135c.454,13.3.756,43.681.756,43.681h39.449c.454,0,3.174-14.964,3.174-14.964S215.7,207.843,214.8,205.425c-.6-1.612-.3-31.489-2.872-45.243s-5.895-16.526-12.847-19.952a150.945,150.945,0,0,0-17.835-6.852" transform="translate(-48.838 -35.941)" fill="#f73c68"/>
          <path id="Path_51053" data-name="Path 51053" d="M208.966,228.943a.365.365,0,0,1-.365-.365c0-1.081-.192-16.434-.378-31.282s-.378-30.206-.378-31.292a.365.365,0,1,1,.731,0c0,1.08.192,16.434.377,31.282s.378,30.206.378,31.292a.365.365,0,0,1-.365.365" transform="translate(-56.006 -44.633)" fill="#8593b6"/>
          <path id="Path_51054" data-name="Path 51054" d="M101.681,247.24l-.3,21.01h45.949s1.964-17.835,1.209-19.5-46.855-1.511-46.855-1.511" transform="translate(-27.318 -66.621)" fill="#f73c68"/>
          <g id="Group_6961" data-name="Group 6961" transform="translate(116.739 77.203)" style="mix-blend-mode: multiply;isolation: isolate">
            <g id="Group_6960" data-name="Group 6960">
              <g id="Group_6959" data-name="Group 6959" clip-path="url(#clip-path-5)">
                <path id="Path_51055" data-name="Path 51055" d="M168.561,121.28a24.047,24.047,0,0,0,6.428,3.453l1.079-9.348s-12.148-5.565-16.27-9.705a25.329,25.329,0,0,0,8.763,15.6" transform="translate(-159.798 -105.68)" fill="#8e9bbb"/>
              </g>
            </g>
          </g>
          <path id="Path_51056" data-name="Path 51056" d="M188.837,59.992a32.7,32.7,0,0,1,3.778,12.092c.6,6.65,0,23.729-5.441,30.984s-16.777,5.139-21.916.756c-4.716-4.023-9.371-8.464-10.58-17.23s2.57-25.393,13.3-28.869,20.858,2.268,20.858,2.268" transform="translate(-41.622 -15.254)" fill="#ff9d8c"/>
          <path id="Path_51057" data-name="Path 51057" d="M205.51,258.294s-.533,0-1.344-.022c-.19-.007-.4,0-.621-.007-.782-.022-1.731-.044-2.688-.073l-.643-.022c-.95-.022-1.761.1-2.52.051h-.022c-.161-.007-.394.015-.584.022a1.423,1.423,0,0,1-.241.007,3.551,3.551,0,0,1-1-.395,67.956,67.956,0,0,0-15.677-2.089c-6.75.029-12.806.489-13.793-.336s-1.593-9.322,4.171-9.877l7.086,2.688s16.181-1.921,22.113,2.455,5.764,7.6,5.764,7.6" transform="translate(-44.659 -66.167)" fill="#ff9d8c"/>
          <path id="Path_51058" data-name="Path 51058" d="M206.038,261.121c-.161-.007-.394.015-.584.022a6.855,6.855,0,0,0-.621-.833c-1.826-1.863-6.239-3.068-7.839-3.455a.275.275,0,0,1-.2-.329.281.281,0,0,1,.336-.2c2.33.563,7.276,2,8.679,4.361.044.066.161.292.234.438" transform="translate(-53.025 -69.067)" fill="#223a7a"/>
          <path id="Path_51059" data-name="Path 51059" d="M209.993,260.412c-.212-.005-.431-.01-.643-.023-1.994-3.637-5.256-4.681-9.288-5.978l-.239-.079a.275.275,0,1,1,.173-.522l.232.079c4.263,1.368,7.693,2.467,9.764,6.522" transform="translate(-53.794 -68.389)" fill="#223a7a"/>
          <path id="Path_51060" data-name="Path 51060" d="M214.153,259.886c-.19,0-.4,0-.621-.008a15.93,15.93,0,0,0-10.508-7.79.275.275,0,0,1-.226-.32.283.283,0,0,1,.32-.218c5.456,1.024,9.856,5.479,11.036,8.336" transform="translate(-54.645 -67.782)" fill="#223a7a"/>
          <path id="Path_51061" data-name="Path 51061" d="M155.7,75.046A14.142,14.142,0,0,0,161.373,69a17.208,17.208,0,0,0,2.04-8.464,26.125,26.125,0,0,1,10.58,1.209c6.348,1.889,13.906,4.458,20.254.831s6.348-9.447,3.249-11.864c-3.47-2.71-10.354-1.059-10.354-1.059s2.645-2.569,1.21-4.08-6.651.453-6.651.453-6.348-5.063-18.364-4.458S145.578,50.56,144.9,59.931s2.721,18.742,2.721,18.742Z" transform="translate(-39.02 -11.187)" fill="#223a7a"/>
          <g id="Group_6964" data-name="Group 6964" transform="translate(137.956 65.946)" style="mix-blend-mode: multiply;isolation: isolate">
            <g id="Group_6963" data-name="Group 6963">
              <g id="Group_6962" data-name="Group 6962" clip-path="url(#clip-path-6)">
                <path id="Path_51062" data-name="Path 51062" d="M191.948,90.455a19.337,19.337,0,0,0-.836,5.409c-.134,1.387-.388,3,.882,3.938.606.447,3.475,1.653,2,2.63a3.885,3.885,0,0,1-2.146.241c-.441-.021-.887-.039-1.327-.072-.474-.035-.939-.178-1.413-.18a.276.276,0,0,0-.139.511,5.968,5.968,0,0,0,2.772.659,4.183,4.183,0,0,0,2.295-.4,1.641,1.641,0,0,0,1.048-1.175,1.877,1.877,0,0,0-.9-1.618c-.571-.424-1.273-.621-1.85-1.034-.8-.573-.734-1.538-.678-2.431.135-2.149.629-4.26.821-6.4.03-.327-.423-.327-.527-.072" transform="translate(-188.841 -90.271)" fill="#8e9bbb"/>
              </g>
            </g>
          </g>
          <path id="Path_51063" data-name="Path 51063" d="M200.307,96.436c-.226,1.274-1.152,2.176-2.07,2.013s-1.479-1.327-1.254-2.6,1.152-2.176,2.07-2.013,1.479,1.327,1.254,2.6" transform="translate(-53.066 -25.28)" fill="#223a7a"/>
          <path id="Path_51064" data-name="Path 51064" d="M184.383,95c-.2,1.375-1.173,2.369-2.163,2.222s-1.628-1.381-1.423-2.756,1.173-2.37,2.164-2.222,1.627,1.381,1.422,2.756" transform="translate(-48.708 -24.852)" fill="#223a7a"/>
          <path id="Path_51065" data-name="Path 51065" d="M197.675,89.544c.706.119,1.419,0,2.132.047.171.012.34.037.511.054.121.012-.226-.036-.057-.008l.109.018c.089.016.178.034.267.056.151.037.3.093.45.127a1.734,1.734,0,0,0,.43.056l.233-.031-.147.026a1.414,1.414,0,0,0,.289-.031.786.786,0,0,0,.543-.955.914.914,0,0,0-.155-.308c-.03-.039-.061-.079-.092-.118l.085.1c-.03-.042-.061-.083-.094-.124a.456.456,0,0,0-.161-.161c-.056-.043-.113-.089-.171-.129a2.055,2.055,0,0,0-.655-.264,5.407,5.407,0,0,0-1.3-.167,9.026,9.026,0,0,0-1.286.1,2.474,2.474,0,0,0-1.1.408.731.731,0,0,0-.341.711.7.7,0,0,0,.511.593" transform="translate(-53.126 -23.64)" fill="#223a7a"/>
          <path id="Path_51066" data-name="Path 51066" d="M184.449,87.14a2.965,2.965,0,0,0-.3-.153c-.086-.039-.32-.162-.143-.065-.064-.035-.129-.071-.194-.1a4.464,4.464,0,0,0-.913-.327,6.075,6.075,0,0,0-2.123-.145,4.931,4.931,0,0,0-2.1.656,1.337,1.337,0,0,0-.264.187c-.052.066-.1.132-.153.2l.043-.066a.744.744,0,0,0-.317.616.614.614,0,0,0,.327.544.923.923,0,0,0,.734.006h-.382a1.371,1.371,0,0,0,.569-.005c.008,0,.2-.05.075-.023s.206-.025.242-.03.269-.028.029-.005c.045,0,.088-.01.132-.016.115-.014.228-.028.343-.037.5-.039,1-.062,1.5-.078.464-.015.937-.019,1.4,0,.2.009.4.015.6.021.113,0,.064.02-.012,0,.04.012.083.02.124.031.083.023.164.05.244.08a.7.7,0,0,0,.828-.406.7.7,0,0,0-.287-.877" transform="translate(-47.962 -23.258)" fill="#223a7a"/>
          <path id="Path_51067" data-name="Path 51067" d="M189.548,114.963a6.835,6.835,0,0,1,3.415-3.074c-1.267-.129-7.245-.682-8.754.175-1.69.96.312,4.813,3.808,5.006a4.777,4.777,0,0,0,1.019-.059,5.046,5.046,0,0,1,.513-2.048" transform="translate(-49.473 -30.071)" fill="#223a7a"/>
          <path id="Path_51068" data-name="Path 51068" d="M153.931,104.88s.6,2.343,4.081,5.063a40.306,40.306,0,0,0,8.514,4.711l.4-1.763s-5.215-2.268-7.633-4.762-2.721-3.854-2.721-3.854Z" transform="translate(-41.479 -28.098)" fill="#dee1eb"/>
          <path id="Path_51069" data-name="Path 51069" d="M171.671,114.281a4.371,4.371,0,0,1,4.554,3.513c.2,1.431-1.149,3.036-4.294,1.626-3.906-1.751-3.057-5.009-.26-5.139" transform="translate(-45.615 -30.793)" fill="#223a7a"/>
          <path id="Path_51070" data-name="Path 51070" d="M154.617,70.844s1.208-8.686,7.029-14.584C172.755,45,182.2,45.679,182.2,45.679s-.076-1.587-3.628-2.8c-3.335-1.135-4.836-.529-4.836-.529s-9.145.756-16.853,9.3a36.192,36.192,0,0,0-8.54,19.422Z" transform="translate(-39.973 -11.369)" fill="#dee1eb"/>
          <path id="Path_51071" data-name="Path 51071" d="M151.495,79.9c-7.278-1.233-11.336,4.459-11.638,10.2s3.871,10.111,9.447,9.674c12.545-.983,11.109-18.364,2.192-19.876" transform="translate(-37.682 -21.485)" fill="#fff"/>
          <path id="Path_51072" data-name="Path 51072" d="M148.928,95.358a4.959,4.959,0,0,1-4.473-2.666,5.526,5.526,0,0,1,.213-5.711.274.274,0,1,1,.452.308,4.977,4.977,0,0,0-.184,5.141,4.4,4.4,0,0,0,4.131,2.378,4.8,4.8,0,0,0,3.969-2.142,6.055,6.055,0,0,0,.6-5.367,4.084,4.084,0,0,0-4.076-2.681.274.274,0,0,1-.072-.543,4.581,4.581,0,0,1,4.662,3.029,6.623,6.623,0,0,1-.657,5.867,5.331,5.331,0,0,1-4.409,2.385l-.154,0" transform="translate(-38.739 -22.647)" fill="#818fb3"/>
          <path id="Path_51073" data-name="Path 51073" d="M128.365,132s-22.067,5.441-29.776,14.208-11.336,51.995-11.487,60,5.441,11.336,8.766,13.6,17.987,6.348,29.776,6.953,22.974,0,22.974,0a15.7,15.7,0,0,1,1.776-6.348c1.682-3.505,3.816-4.233,3.816-4.233l-10.127-3.627s-1.773-31.774-4.534-47.158A136.688,136.688,0,0,0,128.365,132" transform="translate(-23.47 -35.569)" fill="#f73c68"/>
          <path id="Path_51074" data-name="Path 51074" d="M191.346,208.158a.366.366,0,0,1-.334-.513c2.067-4.665,4.21-13.823,5.416-20.248l.1-.519c.365-1.89.82-4.241-.087-5.863-.462-.828-1.507-2.623-2.512-4.35-1.042-1.793-2.026-3.485-2.3-3.99-.533-.987,1.143-3.623,3.569-7.238.655-.977,1.221-1.821,1.552-2.393.865-1.5.289-2.867-.377-4.454l-.227-.546c-.6-1.483-1.291-2.969-1.954-4.406-.272-.587-.544-1.175-.811-1.766q-.532-1.173-1.072-2.38a139.294,139.294,0,0,0-7.172-14.441.365.365,0,1,1,.628-.373,139.857,139.857,0,0,1,7.211,14.515q.541,1.205,1.07,2.378.4.883.809,1.761c.668,1.444,1.357,2.938,1.968,4.437l.224.54c.679,1.618,1.382,3.292.336,5.1-.343.593-.915,1.446-1.578,2.433-1.265,1.886-3.9,5.81-3.533,6.484.267.5,1.249,2.183,2.288,3.97,1.007,1.731,2.054,3.531,2.518,4.36,1.037,1.856.554,4.352.167,6.358l-.1.516c-.439,2.34-2.767,14.32-5.466,20.409a.364.364,0,0,1-.334.218" transform="translate(-49.873 -36.243)" fill="#8593b6"/>
          <path id="Path_51075" data-name="Path 51075" d="M157.284,209a.364.364,0,0,1-.259-.108c-1.717-1.731-10-16.073-10.616-18.769-.338-1.476.51-5.221,1.329-8.843.635-2.806,1.292-5.708,1.105-6.493-.28-1.175-2.4-2.9-4.445-4.578-2.474-2.021-5.033-4.111-5.529-5.994-.563-2.14-.081-15.536.237-24.4.114-3.187.2-5.7.2-6.6a.365.365,0,0,1,.731,0c0,.912-.09,3.435-.2,6.63-.3,8.285-.8,22.151-.261,24.187.435,1.652,3.011,3.757,5.285,5.614,2.241,1.831,4.357,3.56,4.693,4.974.226.95-.389,3.672-1.1,6.822-.764,3.377-1.631,7.2-1.33,8.52.6,2.644,8.736,16.717,10.423,18.416a.366.366,0,0,1-.259.623" transform="translate(-37.35 -35.797)" fill="#8593b6"/>
          <path id="Path_51076" data-name="Path 51076" d="M123.383,212.492a.4.4,0,0,1-.051,0,.366.366,0,0,1-.311-.413c.269-1.9,4.461-39.742,4.654-42.64a.361.361,0,0,1,.389-.34.365.365,0,0,1,.34.389c-.193,2.9-4.391,40.792-4.659,42.694a.367.367,0,0,1-.362.314" transform="translate(-33.148 -45.564)" fill="#8593b6"/>
          <path id="Path_51077" data-name="Path 51077" d="M150.617,237.392a.382.382,0,0,1-.137-.026c-.929-.377-5.034-1.761-10.23-3.514-10.49-3.537-24.855-8.381-27.587-9.8A.365.365,0,1,1,113,223.4c2.682,1.393,17.607,6.426,27.484,9.756,5.209,1.757,9.323,3.144,10.272,3.529a.366.366,0,0,1-.137.7" transform="translate(-30.305 -60.187)" fill="#8593b6"/>
          <path id="Path_51078" data-name="Path 51078" d="M142.674,260.544c-9.232,0-27.129-1.664-40.724-6.473a.366.366,0,0,1,.243-.69c17.175,6.076,41.2,7.113,45.671,6.109a.365.365,0,1,1,.16.713,29.144,29.144,0,0,1-5.35.34" transform="translate(-27.406 -68.271)" fill="#8593b6"/>
          <path id="Path_51079" data-name="Path 51079" d="M338.65,190.047l-28.894,57.234-84.238.6,26-58.644Z" transform="translate(-60.768 -50.993)" fill="#f6f7fa"/>
          <path id="Path_51080" data-name="Path 51080" d="M148.988,247.046l.016-4.581h54.532l25.09-55.017h87.212l2.192,2.116h-85.2L206.76,247s-57.772-.1-57.772.047" transform="translate(-40.147 -50.51)" fill="#dadee8"/>
          <path id="Path_51081" data-name="Path 51081" d="M313.206,231.578c-.952,2.855-6.117,5.059-11.537,4.924s-9.042-2.56-8.091-5.415,6.117-5.059,11.537-4.924,9.043,2.56,8.091,5.415" transform="translate(-79.068 -60.941)" fill="#dadee8"/>
          <path id="Path_51082" data-name="Path 51082" d="M227.934,248.011a.372.372,0,0,1-.151-.033.365.365,0,0,1-.181-.484l26.169-57.65H339.2a.365.365,0,1,1,0,.731H254.242L228.267,247.8a.365.365,0,0,1-.332.214" transform="translate(-61.321 -51.156)" fill="#fff"/>
          <rect id="Rectangle_1788" data-name="Rectangle 1788" width="100.209" height="22.218" transform="translate(4.837 200.873)" fill="#596b9b"/>
          <rect id="Rectangle_1789" data-name="Rectangle 1789" width="180.296" height="22.218" transform="translate(104.474 200.873)" fill="#7a89af"/>
          <g id="Group_6967" data-name="Group 6967" transform="translate(4.837 200.873)" style="mix-blend-mode: multiply;isolation: isolate">
            <g id="Group_6966" data-name="Group 6966">
              <g id="Group_6965" data-name="Group 6965" clip-path="url(#clip-path-7)">
                <path id="Path_51083" data-name="Path 51083" d="M106.83,274.966H6.621v4.081H286.554v-4.081Z" transform="translate(-6.621 -274.966)" fill="#bdc4d7"/>
              </g>
            </g>
          </g>
          <rect id="Rectangle_1791" data-name="Rectangle 1791" width="109.429" height="5.441" transform="translate(0 196.49)" fill="#6f7fa9"/>
          <rect id="Rectangle_1792" data-name="Rectangle 1792" width="180.296" height="5.441" transform="translate(108.857 196.49)" fill="#9ca6c3"/>
          <path id="Path_51084" data-name="Path 51084" d="M322.063,0H240.394a9.5,9.5,0,0,0-9.5,9.5V48.241a9.5,9.5,0,0,0,9.5,9.5h7.32c.206,3.512-.3,8.737-3.23,15.417A41.033,41.033,0,0,0,262.19,57.738h59.873a9.5,9.5,0,0,0,9.5-9.5V9.5a9.5,9.5,0,0,0-9.5-9.5" transform="translate(-62.218)" fill="#60a8ff"/>
          <path id="Path_51085" data-name="Path 51085" d="M292.315,23.789H251.809a2.015,2.015,0,1,1,0-4.03h40.507a2.015,2.015,0,1,1,0,4.03" transform="translate(-67.31 -5.324)" fill="#fff"/>
          <path id="Path_51086" data-name="Path 51086" d="M321.361,40.434H251.028a1.234,1.234,0,1,1,0-2.468h70.333a1.234,1.234,0,1,1,0,2.468" transform="translate(-67.31 -10.23)" fill="#d2e6ff"/>
          <path id="Path_51087" data-name="Path 51087" d="M321.361,49.813H251.028a1.234,1.234,0,1,1,0-2.468h70.333a1.234,1.234,0,1,1,0,2.468" transform="translate(-67.31 -12.758)" fill="#d2e6ff"/>
          <path id="Path_51088" data-name="Path 51088" d="M306.018,59.813H251.028a1.234,1.234,0,1,1,0-2.468h54.991a1.234,1.234,0,1,1,0,2.468" transform="translate(-67.31 -15.452)" fill="#d2e6ff"/>
          <path id="Path_51089" data-name="Path 51089" d="M339.132,23.789H319.809a2.015,2.015,0,0,1,0-4.03h19.323a2.015,2.015,0,1,1,0,4.03" transform="translate(-85.633 -5.324)" fill="#fff"/>
          <path id="Path_51090" data-name="Path 51090" d="M271.7,140.635H249.763a1.461,1.461,0,0,1-1.461-1.461V124.185a1.461,1.461,0,0,1,1.461-1.461H271.7a1.461,1.461,0,0,1,1.461,1.461v14.988a1.461,1.461,0,0,1-1.461,1.461" transform="translate(-66.908 -33.069)" fill="#fff"/>
          <path id="Path_51091" data-name="Path 51091" d="M260.919,134.507a.547.547,0,0,1-.349-.126l-11.941-9.862a.548.548,0,1,1,.7-.845l11.583,9.567,11.288-9.822a.548.548,0,0,1,.719.827l-11.638,10.127a.547.547,0,0,1-.359.134" transform="translate(-66.943 -33.22)" fill="#6f7fa9"/>
          <path id="Path_51092" data-name="Path 51092" d="M248.979,143.039a.548.548,0,0,1-.4-.926l8.352-8.78a.548.548,0,0,1,.793.755l-8.351,8.78a.545.545,0,0,1-.4.17" transform="translate(-66.943 -35.882)" fill="#6f7fa9"/>
          <path id="Path_51093" data-name="Path 51093" d="M278.187,142.761a.545.545,0,0,1-.388-.161l-8.318-8.341a.548.548,0,0,1,.776-.774l8.318,8.341a.548.548,0,0,1-.388.935" transform="translate(-72.572 -35.926)" fill="#6f7fa9"/>
          <path id="Path_51094" data-name="Path 51094" d="M288.523,119.261a7.331,7.331,0,1,1-7.33-7.331,7.33,7.33,0,0,1,7.33,7.331" transform="translate(-73.795 -30.161)" fill="#ff5f42"/>
        </g>
      </g>
      <text id="_85" data-name="85" transform="translate(202.245 90.62)" fill="#fff" font-size="7" font-family="Quicksand-Bold, Quicksand" font-weight="700"><tspan x="0" y="0">85</tspan></text>
      <g id="Group_6971" data-name="Group 6971">
        <g id="Group_6970" data-name="Group 6970" clip-path="url(#clip-path)">
          <path id="Path_51095" data-name="Path 51095" d="M367.805,113.645H324.98a2.922,2.922,0,0,1-2.922-2.922v-6.7a2.922,2.922,0,0,1,2.922-2.922h42.825a2.922,2.922,0,0,1,2.922,2.922v6.7a2.922,2.922,0,0,1-2.922,2.922" transform="translate(-86.782 -27.243)" fill="#223a7a"/>
          <path id="Path_51096" data-name="Path 51096" d="M329.2,111.762a.577.577,0,0,1-.462-.205.689.689,0,0,1-.155-.514l.186-1.624c.013-.041.007-.069-.02-.083a.1.1,0,0,0-.1.02l-1.336.967a.632.632,0,0,1-.514.134.639.639,0,0,1-.432-.319.622.622,0,0,1-.072-.576.661.661,0,0,1,.381-.349l1.5-.679c.041-.014.061-.034.061-.062s-.02-.047-.061-.061l-1.5-.679a.613.613,0,0,1-.37-.391.676.676,0,0,1,.062-.534.644.644,0,0,1,.432-.319.674.674,0,0,1,.514.113l1.336.987a.1.1,0,0,0,.1.02c.027-.013.034-.041.02-.082l-.186-1.625a.667.667,0,0,1,.165-.514.631.631,0,0,1,.493-.206.611.611,0,0,1,.617.72l-.185,1.625c-.014.041-.007.069.021.082a.1.1,0,0,0,.1-.02l1.337-.967a.648.648,0,0,1,.524-.134.586.586,0,0,1,.422.319.619.619,0,0,1,.072.576.662.662,0,0,1-.38.349l-1.5.679c-.042.014-.062.034-.062.061s.02.048.062.062l1.5.679a.647.647,0,0,1,.38.39.6.6,0,0,1-.072.535.581.581,0,0,1-.422.319.689.689,0,0,1-.524-.112l-1.337-.988a.1.1,0,0,0-.1-.02c-.029.014-.035.042-.021.083l.185,1.624a.594.594,0,0,1-.153.514.668.668,0,0,1-.5.205" transform="translate(-87.912 -28.343)" fill="#fff"/>
          <path id="Path_51097" data-name="Path 51097" d="M341.326,111.762a.577.577,0,0,1-.462-.205.689.689,0,0,1-.155-.514l.186-1.624c.013-.041.007-.069-.02-.083a.1.1,0,0,0-.1.02l-1.336.967a.632.632,0,0,1-.514.134.639.639,0,0,1-.432-.319.622.622,0,0,1-.072-.576.661.661,0,0,1,.381-.349l1.5-.679c.041-.014.061-.034.061-.062s-.02-.047-.061-.061l-1.5-.679a.613.613,0,0,1-.37-.391.676.676,0,0,1,.062-.534.645.645,0,0,1,.432-.319.674.674,0,0,1,.514.113l1.336.987a.1.1,0,0,0,.1.02c.027-.013.034-.041.02-.082l-.186-1.625a.667.667,0,0,1,.165-.514.631.631,0,0,1,.493-.206.611.611,0,0,1,.617.72l-.185,1.625c-.014.041-.007.069.021.082a.1.1,0,0,0,.1-.02l1.337-.967a.649.649,0,0,1,.525-.134.588.588,0,0,1,.421.319.617.617,0,0,1,.072.576.661.661,0,0,1-.38.349l-1.5.679c-.042.014-.062.034-.062.061s.02.048.062.062l1.5.679a.647.647,0,0,1,.38.39.6.6,0,0,1-.072.535.583.583,0,0,1-.421.319.69.69,0,0,1-.525-.112l-1.337-.988a.1.1,0,0,0-.1-.02c-.029.014-.035.042-.021.083l.185,1.624a.594.594,0,0,1-.153.514.668.668,0,0,1-.5.205" transform="translate(-91.179 -28.343)" fill="#fff"/>
          <path id="Path_51098" data-name="Path 51098" d="M353.451,111.762a.577.577,0,0,1-.462-.205.689.689,0,0,1-.155-.514l.186-1.624c.013-.041.007-.069-.02-.083a.1.1,0,0,0-.1.02l-1.336.967a.632.632,0,0,1-.514.134.639.639,0,0,1-.432-.319.622.622,0,0,1-.072-.576.661.661,0,0,1,.381-.349l1.5-.679c.041-.014.061-.034.061-.062s-.02-.047-.061-.061l-1.5-.679a.613.613,0,0,1-.37-.391.675.675,0,0,1,.062-.534.645.645,0,0,1,.432-.319.674.674,0,0,1,.514.113l1.336.987a.1.1,0,0,0,.1.02c.027-.013.034-.041.02-.082l-.186-1.625a.667.667,0,0,1,.165-.514.631.631,0,0,1,.493-.206.611.611,0,0,1,.617.72l-.185,1.625c-.014.041-.007.069.021.082a.1.1,0,0,0,.1-.02l1.337-.967a.648.648,0,0,1,.524-.134.586.586,0,0,1,.422.319.619.619,0,0,1,.072.576.661.661,0,0,1-.38.349l-1.5.679c-.042.014-.062.034-.062.061s.02.048.062.062l1.5.679a.647.647,0,0,1,.38.39.6.6,0,0,1-.072.535.582.582,0,0,1-.422.319.689.689,0,0,1-.524-.112l-1.337-.988a.1.1,0,0,0-.1-.02c-.029.014-.035.042-.021.083l.185,1.624a.594.594,0,0,1-.153.514.668.668,0,0,1-.5.205" transform="translate(-94.446 -28.343)" fill="#fff"/>
          <path id="Path_51099" data-name="Path 51099" d="M365.576,111.762a.577.577,0,0,1-.462-.205.689.689,0,0,1-.155-.514l.186-1.624c.013-.041.007-.069-.02-.083a.1.1,0,0,0-.1.02l-1.336.967a.632.632,0,0,1-.514.134.639.639,0,0,1-.432-.319.622.622,0,0,1-.072-.576.661.661,0,0,1,.381-.349l1.5-.679c.041-.014.061-.034.061-.062s-.02-.047-.061-.061l-1.5-.679a.613.613,0,0,1-.37-.391.675.675,0,0,1,.062-.534.645.645,0,0,1,.432-.319.674.674,0,0,1,.514.113l1.336.987a.1.1,0,0,0,.1.02c.027-.013.034-.041.02-.082l-.186-1.625a.667.667,0,0,1,.165-.514.631.631,0,0,1,.493-.206.611.611,0,0,1,.617.72l-.185,1.625c-.014.041-.007.069.021.082a.1.1,0,0,0,.1-.02l1.337-.967a.648.648,0,0,1,.524-.134.586.586,0,0,1,.422.319.617.617,0,0,1,.072.576.661.661,0,0,1-.38.349l-1.5.679c-.042.014-.062.034-.062.061s.02.048.062.062l1.5.679a.647.647,0,0,1,.38.39.6.6,0,0,1-.072.535.582.582,0,0,1-.422.319.689.689,0,0,1-.524-.112l-1.337-.988a.1.1,0,0,0-.1-.02c-.028.014-.035.042-.021.083l.185,1.624a.594.594,0,0,1-.153.514.668.668,0,0,1-.5.205" transform="translate(-97.713 -28.343)" fill="#fff"/>
          <path id="Path_51100" data-name="Path 51100" d="M377.7,111.762a.577.577,0,0,1-.462-.205.689.689,0,0,1-.155-.514l.186-1.624c.013-.041.007-.069-.02-.083a.1.1,0,0,0-.1.02l-1.336.967a.632.632,0,0,1-.514.134.639.639,0,0,1-.432-.319.622.622,0,0,1-.072-.576.661.661,0,0,1,.381-.349l1.5-.679c.041-.014.061-.034.061-.062s-.02-.047-.061-.061l-1.5-.679a.613.613,0,0,1-.37-.391.675.675,0,0,1,.062-.534.645.645,0,0,1,.432-.319.674.674,0,0,1,.514.113l1.336.987a.1.1,0,0,0,.1.02c.027-.013.034-.041.02-.082l-.186-1.625a.667.667,0,0,1,.165-.514.63.63,0,0,1,.493-.206.611.611,0,0,1,.617.72l-.185,1.625c-.014.041-.007.069.021.082a.1.1,0,0,0,.1-.02l1.337-.967a.648.648,0,0,1,.524-.134.586.586,0,0,1,.422.319.617.617,0,0,1,.072.576.662.662,0,0,1-.38.349l-1.5.679c-.041.014-.062.034-.062.061s.021.048.062.062l1.5.679a.648.648,0,0,1,.38.39.6.6,0,0,1-.072.535.582.582,0,0,1-.422.319.689.689,0,0,1-.524-.112l-1.337-.988a.1.1,0,0,0-.1-.02c-.028.014-.035.042-.021.083l.185,1.624a.594.594,0,0,1-.153.514.668.668,0,0,1-.5.205" transform="translate(-100.98 -28.343)" fill="#67acff"/>
        </g>
      </g>
    </g>
  </g>
</svg>
