<svg xmlns="http://www.w3.org/2000/svg" xmlns:xlink="http://www.w3.org/1999/xlink" width="98.961" height="139.268" viewBox="0 0 98.961 139.268">
  <defs>
    <clipPath id="clip-path">
      <rect id="Rectangle_1772" data-name="Rectangle 1772" width="98.961" height="139.268" fill="#d30030"/>
    </clipPath>
  </defs>
  <g id="Group_6934" data-name="Group 6934" transform="translate(0 0)">
    <g id="Group_6933" data-name="Group 6933" transform="translate(0 0)" clip-path="url(#clip-path)">
      <path id="Path_50936" data-name="Path 50936" d="M20.871,137.573a15.964,15.964,0,0,1-2.056-2.581q-4.84-9.573-9.532-19.221a10.083,10.083,0,0,1,6.8-14.491A9.884,9.884,0,0,1,26.6,105.565a60.875,60.875,0,0,0,3.655,5.305v-1.311q0-18.362.022-36.725a1.742,1.742,0,0,0-1.215-1.919C17.8,66.054,10.9,54.069,12.519,42.252A27.761,27.761,0,1,1,50.976,71.005a1.778,1.778,0,0,0-1.3,1.974c.069,4.346.028,8.7.028,13.494,3.1-1.195,6.081-2.109,8.856-3.444A41.519,41.519,0,0,0,81.864,43.6,42.044,42.044,0,0,0,75.238,22.75c-.539-.846-.957-1.131-2.024-.749a10.193,10.193,0,0,1-12.221-4.5,10.325,10.325,0,1,1,18.2-.815,2.136,2.136,0,0,0,.163,2.513C95.3,42.754,86.493,75.494,60.91,87.915c-.44.213-.873.446-1.414.723.554.479,1.019.878,1.479,1.273,5.562-5.118,13.631-3.206,16.423,3.848a9.948,9.948,0,0,1,6.569-.97,9.6,9.6,0,0,1,7.813,9.36c.077,10.79.021,21.582.039,32.373a3.468,3.468,0,0,1-1.884,3.051H88.3c-1.521-.758-1.968-1.993-1.959-3.665.056-10.243.037-20.489.011-30.732a7.219,7.219,0,0,0-.388-2.521,4.21,4.21,0,0,0-4.76-2.524,4.341,4.341,0,0,0-3.446,4.311c-.051,3.036.007,6.073-.032,9.11a2.647,2.647,0,0,1-2.6,2.755,2.716,2.716,0,0,1-2.8-2.579,11.087,11.087,0,0,1-.024-1.223c0-4.534.011-9.066-.009-13.6a4.257,4.257,0,1,0-8.509-.174c-.06,4.487-.019,8.976-.022,13.463a11.708,11.708,0,0,1-.032,1.358,2.764,2.764,0,0,1-2.8,2.592,2.655,2.655,0,0,1-2.586-2.773c-.037-4.624,0-9.247-.037-13.871a6.98,6.98,0,0,0-.38-2.388,4.207,4.207,0,0,0-4.592-2.6,4.307,4.307,0,0,0-3.616,4.305c-.037,4.442,0,8.884-.021,13.326a2.667,2.667,0,0,1-2.644,2.978c-1.65.03-2.734-1.135-2.787-3-.009-.363,0-.725,0-1.088V59.941c0-.5.017-1-.015-1.5a4.282,4.282,0,0,0-3.275-3.871,4,4,0,0,0-4.616,2.006,7.878,7.878,0,0,0-.637,3.264q-.053,29.983-.03,59.968a12.288,12.288,0,0,1-.1,1.9,2.145,2.145,0,0,1-1.9,2.019,6.2,6.2,0,0,1-2.7-.745c-.384-.174-.584-.779-.843-1.2-2.642-4.33-5.262-8.672-7.929-12.985A4.612,4.612,0,0,0,17.2,106.6a4.426,4.426,0,0,0-3.526,4,6.578,6.578,0,0,0,.685,3.1c3.094,6.4,6.275,12.749,9.425,19.12,1.14,2.309.835,3.418-1.287,4.745Zm9.384-72.195c0-1.348-.051-2.522.011-3.689a31.375,31.375,0,0,1,.5-5.788,3,3,0,0,0-.579-2.985,12.261,12.261,0,0,1-.506-14.247A12.436,12.436,0,1,1,49.527,53.576a1.753,1.753,0,0,0-.427,1.906,16.576,16.576,0,0,1,.584,3.865c.092,2.013.024,4.034.024,6.11,6.5-2.521,14.219-11.579,12.485-23.429A22.336,22.336,0,0,0,18.2,41.164,21.891,21.891,0,0,0,30.255,65.378m4.856-15.122a10.022,10.022,0,0,1,9.464-.142,1.218,1.218,0,0,0,1.071-.388A6.762,6.762,0,0,0,46.982,44.1a7.006,7.006,0,0,0-13.193-1.65,6.72,6.72,0,0,0,1.322,7.805m39.646-38A4.838,4.838,0,0,0,69.843,7.38a4.934,4.934,0,0,0-4.856,4.837,4.882,4.882,0,0,0,4.888,4.918,4.8,4.8,0,0,0,4.882-4.882" transform="translate(7.136 1.696)" fill="#d30030"/>
      <path id="Path_50937" data-name="Path 50937" d="M0,43.775c.545-2.972.893-6,1.667-8.908A47.217,47.217,0,0,1,43.742.019c1.831-.135,2.957.44,3.44,1.76.67,1.824-.594,3.489-2.788,3.654A41.84,41.84,0,0,0,12.116,69.849c.243.375.507.738.816,1.189A10.9,10.9,0,0,1,20.1,70.4,10.337,10.337,0,1,1,8.15,76.041a2.371,2.371,0,0,0-.262-2.766A45.784,45.784,0,0,1,.243,51.892,7.932,7.932,0,0,0,0,50.849V43.775m22.33,36.7a4.813,4.813,0,0,0-4.8-4.968,4.881,4.881,0,1,0-.056,9.76,4.842,4.842,0,0,0,4.86-4.792" transform="translate(0 0)" fill="#d30030"/>
      <path id="Path_50938" data-name="Path 50938" d="M34.333,3.249a2.688,2.688,0,0,1-2.7,2.663,2.753,2.753,0,0,1-2.715-2.676,2.708,2.708,0,0,1,2.8-2.71,2.642,2.642,0,0,1,2.616,2.723" transform="translate(25.238 0.459)" fill="#d30030"/>
    </g>
  </g>
</svg>
