<svg id="Group_6982" data-name="Group 6982" xmlns="http://www.w3.org/2000/svg" xmlns:xlink="http://www.w3.org/1999/xlink" width="37.326" height="41.274" viewBox="0 0 37.326 41.274">
  <defs>
    <clipPath id="clip-path">
      <rect id="Rectangle_1801" data-name="Rectangle 1801" width="37.326" height="41.274" fill="#ff0"/>
    </clipPath>
  </defs>
  <g id="Group_6981" data-name="Group 6981" clip-path="url(#clip-path)">
    <path id="Path_51108" data-name="Path 51108" d="M26.6,0c1.325.3,2.247,1.59,3.15,2.506.86.873,2.215,1.78,2.564,3,.373,1.309.077,3,.076,4.359,0,1.629.007,3.258.007,4.887.359.081.9-.57,1.449-.459.705.142,1.335.879,1.863,1.318s1.345.909,1.563,1.607c.266.851-.421,1.487-.915,2.08-1.139,1.365-2.323,2.7-3.421,4.1-.966,1.232-.535,3.257-.537,4.758q-.007,5.391,0,10.782c0,.485.208,1.51-.089,1.943-.273.4-.858.288-1.276.291-1.94.013-3.881,0-5.821,0H3.265c-.835,0-2.69.405-3.125-.446A6.327,6.327,0,0,1,.1,38.472q0-1.572,0-3.144,0-5.615,0-11.23a8.8,8.8,0,0,1,.019-2.647c.3-.768,1.044-.513,1.179.2a16.973,16.973,0,0,1,.007,2.973q0,1.57,0,3.14,0,6.1,0,12.191H31.161V25.523c-1.6,1.829-3.134,3.726-4.7,5.589a30.6,30.6,0,0,1-2.406,2.842,11.143,11.143,0,0,1-3,1.526c-.644.293-2.006,1.263-2.72.986s-.929-2.121-1.846-1.785c-.7.255-1.276,2.043-2.163,1.826-.732-.179-.9-2.136-1.063-2.742-.915,1.265-1.64,2.6-3.332,2.736-.529.043-1.942.273-2.2-.338-.333-.777.675-.853,1.155-.855a2.725,2.725,0,0,0,2.013-.432,11.534,11.534,0,0,0,1.57-2.069c.353-.491.948-1.563,1.58-.709a8.589,8.589,0,0,1,.706,2.533A4.4,4.4,0,0,1,16.387,33.4c.872-.221,1.439.448,1.974,1.03.271-1.061.52-2.13.815-3.184a5.408,5.408,0,0,1,1.279-2.088q2.132-2.564,4.283-5.111c.292-.345,1.136-1.362,1.514-.478.273.639-.872,1.587-1.22,2Q22.905,28.1,20.782,30.64l2.653,2.212L33.962,20.279l-2.647-2.217c-.74.883-1.484,1.763-2.22,2.649-.384.462-1.033,1.646-1.668,1.684-1.835.108,1.412-3.257,1.709-3.612a11,11,0,0,0,1.985-2.439,9.3,9.3,0,0,0,.062-2.906q0-1.555,0-3.11a19.7,19.7,0,0,0-.026-3.25H27.62c-.615,0-1.685.239-2.081-.327-.336-.479-.074-1.985-.074-2.572q0-1.476,0-2.952H1.31q0,4.988,0,9.977,0,2.587,0,5.174c0,.412.287,3.906-1.008,2.852-.4-.323-.2-1.458-.2-1.9V14.856q0-2.7,0-5.395,0-2.473,0-4.945,0-1.349,0-2.7C.1,1.241-.062.422.452,0ZM26.8,1.282l-.1.091V5.85h4.459l.085-.105c-1.454-1.514-2.926-3.009-4.44-4.463M32.09,17.137l2.649,2.215c.252-.3,1.268-1.219,1.283-1.642.017-.49-.791-.921-1.144-1.215s-.985-1.089-1.5-.876c-.458.189-.971,1.14-1.288,1.518m-9.7,16.411L20.275,31.8,19.5,34.861l2.885-1.313" transform="translate(0)" fill="#ff0"/>
    <path id="Path_51109" data-name="Path 51109" d="M130.067,100.726c-.866,0-6.105.517-6.019-.663.076-1.045,5.346-.543,6.218-.543s5.878-.5,5.8.651c-.06.9-1.787.556-2.357.556h-3.642" transform="translate(-114.047 -91.387)" fill="#ff0"/>
    <path id="Path_51110" data-name="Path 51110" d="M87.517,162.051c.878,0,5.684-.51,5.766.553.092,1.185-4.759.652-5.56.653H84.261c-.582,0-2.336.321-2.523-.479-.239-1.024,1.66-.727,2.193-.727h3.586" transform="translate(-75.13 -148.876)" fill="#ff0"/>
    <path id="Path_51111" data-name="Path 51111" d="M87.518,202.625h3.349c.574,0,2.288-.329,2.413.514.18,1.22-4.774.692-5.554.692H84.2c-.574,0-2.286.321-2.468-.483-.231-1.02,1.635-.723,2.167-.723h3.615" transform="translate(-75.13 -186.233)" fill="#ff0"/>
    <path id="Path_51112" data-name="Path 51112" d="M87.546,242.642c1.107,0,2.215,0,3.322,0,.548,0,2.2-.286,2.43.463.367,1.2-4.862.743-5.564.743h-3.58c-.567,0-2.241.322-2.4-.5-.2-1.009,1.619-.708,2.153-.708q1.822,0,3.643,0" transform="translate(-75.145 -223.032)" fill="#ff0"/>
    <path id="Path_51113" data-name="Path 51113" d="M248.951,162.623c.573,0,2.81-.375,2.781.614-.027.96-2.205.593-2.814.593-.657,0-2.577.365-2.769-.481-.259-1.137,2.216-.726,2.8-.727" transform="translate(-226.288 -149.447)" fill="#ff0"/>
    <path id="Path_51114" data-name="Path 51114" d="M248.951,202.506c.581,0,2.789-.382,2.8.59s-2.2.618-2.809.618c-.657,0-2.6.369-2.776-.5-.221-1.118,2.19-.711,2.781-.711" transform="translate(-226.313 -186.114)" fill="#ff0"/>
    <path id="Path_51115" data-name="Path 51115" d="M248.9,242.326c.574,0,2.966-.4,2.749.707-.174.889-2.528.5-3.191.5-.557,0-2.4.343-2.392-.613.011-1,2.245-.594,2.834-.594" transform="translate(-226.228 -222.717)" fill="#ff0"/>
  </g>
</svg>
