<svg id="Group_6976" data-name="Group 6976" xmlns="http://www.w3.org/2000/svg" xmlns:xlink="http://www.w3.org/1999/xlink" width="129.552" height="129.586" viewBox="0 0 129.552 129.586">
  <defs>
    <clipPath id="clip-path">
      <rect id="Rectangle_1796" data-name="Rectangle 1796" width="129.552" height="129.586" fill="#d30030"/>
    </clipPath>
  </defs>
  <g id="Group_6975" data-name="Group 6975" clip-path="url(#clip-path)">
    <path id="Path_51101" data-name="Path 51101" d="M0,289.844c1.015-2.181,2.743-2.849,5.1-2.82,8.01.1,16.021.037,24.032.037h1.488c0-3.812-.015-7.51.006-11.207a3.807,3.807,0,0,1,3.231-3.927,9.037,9.037,0,0,1,1.388-.046q12.079,0,24.159,0H60.98v-1.25c0-3.2-.005-6.409,0-9.613.006-2.8,1.5-4.314,4.279-4.316q12.269-.01,24.538,0h1.545v-3.814c0-2.445-.015-4.891,0-7.336a3.8,3.8,0,0,1,4.056-4.025q15.052-.02,30.1,0a3.789,3.789,0,0,1,4.037,4.047q.015,30.1,0,60.207c0,2.552-1.614,4.054-4.286,4.055q-26.625.006-53.25,0-33.455,0-66.91.035c-2.353.006-4.081-.641-5.1-2.819Zm99.021,12.3h22.873V249.165H99.021Zm-30.361,0H91.276v-37.8H68.661Zm-7.737-22.581H38.308v22.617H60.923ZM30.557,294.738H7.692v7.44H30.557Z" transform="translate(0 -180.283)" fill="#d30030"/>
    <path id="Path_51102" data-name="Path 51102" d="M317.317,0c2.371,1.105,2.974,2.982,2.71,5.486-.374,3.559-.528,7.144-.686,10.722a2.176,2.176,0,0,0,.72,1.546q4.4,3.6,8.917,7.065c1.408,1.089,2.3,2.379,1.9,4.219s-1.715,2.67-3.449,3.091c-3.679.895-7.339,1.872-11.018,2.768a1.727,1.727,0,0,0-1.389,1.232c-1.307,3.644-2.684,7.262-4,10.9a3.867,3.867,0,0,1-7.186.79c-2.045-3.291-4.105-6.574-6.235-9.81a2.32,2.32,0,0,0-1.569-.927c-3.871-.218-7.749-.292-11.622-.481-2.707-.132-4.356-1.857-4.011-4.261a5.145,5.145,0,0,1,1.117-2.332q3.48-4.339,7.113-8.554a2.529,2.529,0,0,0,.56-2.715c-1.075-3.542-2.018-7.125-3.046-10.682a3.853,3.853,0,0,1,5.38-4.814c3.542,1.454,7.122,2.814,10.659,4.278a1.921,1.921,0,0,0,2.075-.213c3.092-2.12,6.22-4.186,9.341-6.263.553-.368,1.132-.7,1.7-1.044ZM306.387,37.619c.76-2.057,1.528-3.876,2.1-5.755a5.058,5.058,0,0,1,4.294-3.883c1.943-.346,3.838-.965,5.979-1.522-1.767-1.4-3.25-2.718-4.875-3.827a5.116,5.116,0,0,1-2.308-5.437c.259-1.885.277-3.8.419-5.95-1.9,1.261-3.627,2.3-5.227,3.508a4.934,4.934,0,0,1-5.537.566c-1.8-.84-3.693-1.489-5.812-2.329.581,2.062.956,3.875,1.606,5.584a5.441,5.441,0,0,1-1.389,6.319c-1.281,1.3-2.359,2.8-3.672,4.38,2.322.108,4.37.308,6.413.27a4.758,4.758,0,0,1,4.61,2.681c1.007,1.782,2.177,3.473,3.4,5.4" transform="translate(-209.273)" fill="#d30030"/>
    <path id="Path_51103" data-name="Path 51103" d="M110.493,196.842c-2.53,0-5.059-.016-7.589,0a3.817,3.817,0,0,0-4.052,3.914,11.377,11.377,0,0,1-11.7,11.259c-4.764.016-9.529,0-14.293,0-2.725,0-4.117,1.281-4.368,3.983a3.794,3.794,0,0,1-7.579-.368,11.357,11.357,0,0,1,11-11.177c4.973-.1,9.95-.025,14.925-.031,2.9,0,4.318-1.373,4.445-4.293a11.359,11.359,0,0,1,11.06-10.861c4.974-.084,9.95-.021,14.925-.028,2.721,0,4.121-1.284,4.37-3.981a3.794,3.794,0,0,1,7.578.37,11.387,11.387,0,0,1-10.877,11.176c-2.612.08-5.227.013-7.841.013v.014" transform="translate(-45.466 -135.609)" fill="#d30030"/>
  </g>
</svg>
