<svg id="Group_6980" data-name="Group 6980" xmlns="http://www.w3.org/2000/svg" xmlns:xlink="http://www.w3.org/1999/xlink" width="35.5" height="35.625" viewBox="0 0 35.5 35.625">
  <defs>
    <clipPath id="clip-path">
      <rect id="Rectangle_1800" data-name="Rectangle 1800" width="35.5" height="35.625" fill="#ff0"/>
    </clipPath>
  </defs>
  <g id="Group_6979" data-name="Group 6979" clip-path="url(#clip-path)">
    <path id="Path_51107" data-name="Path 51107" d="M32.637,0a2.324,2.324,0,0,1,1.547,3.276c-.283.714-.566.965-.192,1.6.4.677.246,1.028.093,1.762A2.6,2.6,0,0,1,35.5,8.83c.035,1.05-.735,1.9-1.231,2.77A11.119,11.119,0,0,0,33,14.675a12.421,12.421,0,0,0-.241,1.555c-.038.4.039,1.005-.285,1.321-.733.715-1.17-.352-1.149-.947a11.741,11.741,0,0,1,.546-3.152,14.428,14.428,0,0,1,1.478-3c.484-.8,1.269-1.819.173-2.51-1.519,3.11-2.748,6.4-4.106,9.581Q27.261,22.576,25.1,27.63c-.609,1.425-1.088,3.512-2.273,4.549A27.233,27.233,0,0,1,18.8,35.434c-.617.351-.9.2-1.338-.305-.6-.7-1.12-1.475-1.69-2.2-.678-.86-2.067-2.633-3.353-2.085-.716.3-1.255,1.248-1.738,1.83a5.769,5.769,0,0,1-1.6,1.449c-1.7.936-3.205.05-4.608-.954C3.761,33.608.8,36.018.11,35.12c-.768-1.006,2.738-2.589,3.362-2.977-.958-1.728-1.661-3.407-.854-5.364a4.816,4.816,0,0,1,4.023-2.964c1.972-.136,4.069,1.558,3.583,3.678-.491,2.144-2.871,3.57-4.482,4.811a2.176,2.176,0,0,0,2.781.511c1.045-.632,1.65-1.92,2.564-2.726a2.778,2.778,0,0,1,3.435-.254,6.886,6.886,0,0,1,1.409,1.128,16.385,16.385,0,0,0,1.415,1.612,12.177,12.177,0,0,1-.128-3.722,33.614,33.614,0,0,1,1.713-4.036q1.712-4,3.427-8l3.429-8L27.463,4.9c.449-1.048.8-2.232,2.173-2.119C30.12,1.646,30.42.353,31.871,0ZM25.756,13.239a1.176,1.176,0,0,0-.078.123q-3.348,7.806-6.7,15.611a.3.3,0,0,0,.108.407A5.122,5.122,0,0,0,21.593,30.5a.465.465,0,0,0,.6-.331q2.934-6.944,5.9-13.875c.243-.572.484-1.145.736-1.742l-3.071-1.316m6.781-7.374L29.468,4.529,26.286,11.95l3.094,1.323,3.157-7.409M4.715,31.347c.832-.662,1.7-1.287,2.488-2s2.186-2.024,1.488-3.182a2.345,2.345,0,0,0-3.118-.611c-2.308,1.154-2.4,3.964-.857,5.8M32.121,3.817c.207-.506.412-.98.6-1.463.2-.533-.426-.77-.776-.515s-.564,1.175-.741,1.578l.921.4M20.632,31.78l-1.694-.729.145,1.986,1.548-1.256" transform="translate(0)" fill="#ff0"/>
  </g>
</svg>
