<svg id="Group_6978" data-name="Group 6978" xmlns="http://www.w3.org/2000/svg" xmlns:xlink="http://www.w3.org/1999/xlink" width="133.704" height="133.68" viewBox="0 0 133.704 133.68">
  <defs>
    <clipPath id="clip-path">
      <rect id="Rectangle_1797" data-name="Rectangle 1797" width="133.704" height="133.68" fill="#d30030"/>
    </clipPath>
  </defs>
  <g id="Group_6977" data-name="Group 6977" clip-path="url(#clip-path)">
    <path id="Path_51104" data-name="Path 51104" d="M25.363,258.86a3.5,3.5,0,0,1-1.856-3.55c.092-3.515.029-7.035.029-10.724h-1.62q-9.265,0-18.53,0c-2.511,0-3.364-.854-3.34-3.385.036-3.825-.235-7.693.237-11.466,1.108-8.867,8.025-15.115,16.955-15.766.171-.013.341-.037.631-.068a6.639,6.639,0,0,1-.58-1.037c-.658-1.957-1.645-3.888-1.842-5.894-.333-3.4-.544-6.868.675-10.2a13.221,13.221,0,0,1,25.628,3.7,61.125,61.125,0,0,1,.005,6.262,13.221,13.221,0,0,1-2.594,7.133H53.7c-.155-.205-.235-.337-.339-.447A18.854,18.854,0,0,1,48.069,199.8c.035-3.785-.007-7.57.01-11.355a18.782,18.782,0,0,1,37.2-3.8,22.8,22.8,0,0,1,.371,4.276c.05,3.61-.012,7.222.023,10.832A18.855,18.855,0,0,1,80.5,213.284c-.137.147-.255.311-.485.592H94.532c-3.4-5.078-3.166-10.616-2.016-16.046,1.331-6.283,7.55-10.321,14.065-9.711a13.188,13.188,0,0,1,11.763,12.03c.145,2.035.1,4.086.075,6.129a13.272,13.272,0,0,1-2.512,7.472,40.748,40.748,0,0,1,5.152,1.086,17.874,17.874,0,0,1,12.4,14.326,5.259,5.259,0,0,0,.247.714v12.794a3.188,3.188,0,0,1-3.345,1.936c-6.176-.052-12.353-.021-18.53-.021h-1.621c0,3.689-.063,7.208.028,10.723a3.508,3.508,0,0,1-1.856,3.551H56.168c-1.55-1.056-2.078-2.054-1.736-3.278.382-1.365,1.394-1.942,3.414-1.944,1.645,0,3.29,0,4.972,0a2.091,2.091,0,0,0-.058-.458q-6.837-16.622-13.718-33.226a1.418,1.418,0,0,0-1.171-.567c-9.5.919-17.88,8.926-18.8,18.455-.5,5.129-.213,10.333-.275,15.5,0,.069.085.139.185.293h2.144c.783,0,1.567-.032,2.348.013a2.511,2.511,0,0,1,2.383,3.446,7.807,7.807,0,0,1-1.614,1.764Zm45.451-5.309h34.141c0-4.733.182-9.388-.037-14.023A21.764,21.764,0,0,0,86.281,219.37c-1.132-.142-1.5.23-1.874,1.154q-4.966,12.178-10,24.328c-1.186,2.879-2.377,5.756-3.592,8.7m9.85-59.935A29.034,29.034,0,0,1,67.6,190.423a2.257,2.257,0,0,0-1.535.03c-2.8.9-5.549,1.948-8.373,2.746a26.52,26.52,0,0,1-4.384.5c0,2.382-.042,4.683.008,6.983a13.612,13.612,0,0,0,12.234,13.209,13.278,13.278,0,0,0,14.344-10.1c.707-3.253.538-6.7.773-10.179m18.565,25.58a28.029,28.029,0,0,1,7.738,8.924,28.388,28.388,0,0,1,3.233,11.148h18.248c0-2.787.141-5.486-.028-8.166a12.768,12.768,0,0,0-12.1-11.872c-5.563-.16-11.134-.033-17.095-.033M23.557,239.306a27.574,27.574,0,0,1,10.92-20.135c-5.446,0-10.535,0-15.624,0-.478,0-.958,0-1.435.025a12.975,12.975,0,0,0-11.575,9.091c-1.072,3.614-.417,7.318-.585,11.018ZM66.873,249.4,79.308,219.25H69.482c0,1.983.012,3.888,0,5.792-.015,1.8-1.03,2.971-2.565,3-1.58.026-2.636-1.173-2.649-3.042-.013-1.9,0-3.8,0-5.745H54.435L66.873,249.4m-30.2-45.777-.106-.007c0-.912.043-1.826-.007-2.735a8,8,0,0,0-7.68-7.577,7.851,7.851,0,0,0-8.259,7.181,38.073,38.073,0,0,0,.016,6.371,7.962,7.962,0,0,0,15.7.775,34.179,34.179,0,0,0,.331-4.008m60.4-.1.106.008c0,.912-.036,1.825.006,2.735a8.06,8.06,0,0,0,7.74,7.674,7.885,7.885,0,0,0,8.19-7.132,38.47,38.47,0,0,0-.013-6.5,7.964,7.964,0,0,0-15.681-.791,33.787,33.787,0,0,0-.348,4.006M53.407,188.361a20.921,20.921,0,0,0,11.213-3.148,3.848,3.848,0,0,1,4.571.013,24.463,24.463,0,0,0,4.731,2.122,16.8,16.8,0,0,0,6.471.972,13.541,13.541,0,0,0-14.011-13.532c-7.177.181-13.509,6.729-12.975,13.573" transform="translate(0 -125.18)" fill="#d30030"/>
    <path id="Path_51105" data-name="Path 51105" d="M164.668,496.4c-.207-.145-.416-.287-.62-.436a2.469,2.469,0,0,1-1.065-2.934,2.58,2.58,0,0,1,4.936,0,2.475,2.475,0,0,1-1.065,2.934c-.2.149-.413.291-.619.437Z" transform="translate(-120.248 -362.717)" fill="#d30030"/>
    <path id="Path_51106" data-name="Path 51106" d="M198.887,33.2c-1.957,1.424-3.878,2.848-5.826,4.235-2.17,1.544-4.346,1.6-6.285.2a5.1,5.1,0,0,1-1.782-6.037c.64-2.029,1.29-4.056,2-6.059a1.082,1.082,0,0,0-.475-1.5c-1.721-1.179-3.4-2.421-5.084-3.654-2.226-1.63-2.992-3.68-2.26-5.995.7-2.215,2.537-3.507,5.2-3.566q3.131-.069,6.263.005a1.263,1.263,0,0,0,1.479-1.056c.582-2,1.242-3.979,1.9-5.956a5.132,5.132,0,0,1,9.91-.04c.639,1.892,1.317,3.778,1.814,5.709.292,1.134.871,1.387,1.931,1.346,1.911-.073,3.827-.043,5.741-.014,2.774.042,4.635,1.286,5.361,3.531.752,2.327-.036,4.42-2.32,6.094-1.89,1.385-3.8,2.751-5.762,4.174.745,2.3,1.486,4.558,2.21,6.823.834,2.608.235,4.782-1.682,6.175-1.973,1.433-4.147,1.362-6.39-.237-1.911-1.362-3.808-2.746-5.712-4.119a1.092,1.092,0,0,0-.241-.058m14.3-16.842-.05-.325q-3.953,0-7.906,0c-2.405,0-2.937-.394-3.671-2.654-.81-2.5-1.626-4.989-2.545-7.809-.267.708-.428,1.088-.555,1.479-.738,2.269-1.452,4.546-2.205,6.81a2.674,2.674,0,0,1-2.985,2.169c-1.129.021-2.26,0-3.39,0h-5.029a71.377,71.377,0,0,0,6.176,4.848c2.094,1.523,2.273,2.07,1.485,4.5-.811,2.5-1.62,5-2.542,7.847,2.371-1.727,4.436-3.229,6.5-4.734,2.227-1.625,2.819-1.621,5.068.021,2.049,1.5,4.1,2.986,6.172,4.491.079-.162.122-.208.112-.237-.838-2.6-1.685-5.2-2.52-7.8-.592-1.843-.321-2.657,1.254-3.8q3.313-2.411,6.634-4.81" transform="translate(-132.114 0)" fill="#d30030"/>
  </g>
</svg>
